<?xml version="1.0" encoding="UTF-8"?>
<svg version="1.1" xmlns="http://www.w3.org/2000/svg" width="1854" height="1047">
<path d="M0 0 C611.82 0 1223.64 0 1854 0 C1854 345.51 1854 691.02 1854 1047 C1242.18 1047 630.36 1047 0 1047 C0 701.49 0 355.98 0 0 Z " fill="#FEFEFE" transform="translate(0,0)"/>
<path d="M0 0 C30.36 0 60.72 0 92 0 C100.0080888 25.16827909 100.0080888 25.16827909 102.5625 34.5625 C103.14535271 36.67330986 103.72869407 38.78398484 104.3125 40.89453125 C104.59480469 41.91885254 104.87710938 42.94317383 105.16796875 43.99853516 C106.44067173 48.58967671 107.74939387 53.17027858 109.0625 57.75 C109.42807007 59.02738037 109.42807007 59.02738037 109.80102539 60.33056641 C111.02950248 64.62104408 112.26188054 68.91038807 113.49609375 73.19921875 C116.04563459 82.07374135 118.53827317 90.95860067 120.9375 99.875 C123.22632565 108.36219671 125.72505862 116.76946045 128.31958008 125.16772461 C130.86207074 133.43868804 133.19312396 141.76133205 135.5 150.10058594 C137.82238139 158.45956828 140.33061263 166.74581141 143 175 C156.19523431 140.10224173 167.97186717 104.73316912 176.6484375 68.421875 C177.64030701 64.3210524 178.768882 60.27433486 179.9453125 56.22265625 C182.00648688 49.09050792 183.78549741 41.90978144 185.5 34.6875 C185.80115723 33.43018066 186.10231445 32.17286133 186.41259766 30.87744141 C188.39485342 22.58907452 190.35227963 14.29493063 192.2734375 5.9921875 C193 3 193 3 194 0 C221.06 0 248.12 0 276 0 C274.87463649 10.12827163 274.87463649 10.12827163 273.87109375 13.890625 C273.64550781 14.74833496 273.41992188 15.60604492 273.1875 16.48974609 C272.94 17.40062988 272.6925 18.31151367 272.4375 19.25 C272.03724609 20.74200928 272.03724609 20.74200928 271.62890625 22.26416016 C271.0521072 24.40830479 270.47242981 26.55167682 269.89013672 28.69433594 C269.01070253 31.96025444 268.16130061 35.23280845 267.31640625 38.5078125 C261.88446918 59.23241915 254.9344945 79.38424647 247.84490967 99.58953857 C247.04507267 101.87141119 246.24859775 104.15442121 245.45361328 106.43798828 C223.12681729 170.53901123 198.70895942 240.37980673 153 292 C152.19433594 292.91652344 151.38867188 293.83304688 150.55859375 294.77734375 C125.35450466 323.13727478 92.03332585 337.52361347 55 344 C53.91074219 344.21140625 52.82148437 344.4228125 51.69921875 344.640625 C40.21734755 346.7697137 28.64678716 347.07159095 17 347 C16.88930176 345.72584229 16.77860352 344.45168457 16.66455078 343.13891602 C16.24591302 338.32830377 15.82386376 333.51799547 15.40087891 328.70776367 C15.21963621 326.64143653 15.03927053 324.57503224 14.85986328 322.50854492 C13.87763921 311.2019935 12.83507416 299.92610175 11.36279297 288.67163086 C10.97392391 284.73609804 10.93932194 280.95145376 11 277 C12.04414062 276.97421875 13.08828125 276.9484375 14.1640625 276.921875 C38.5835776 276.07739609 67.06904371 272.38744557 84.6328125 253.640625 C85.30957031 252.82851563 85.30957031 252.82851563 86 252 C86.5463208 251.40297272 87.0926416 250.80594543 87.65551758 250.19082642 C89.24676624 248.10188343 89.24676624 248.10188343 88.74438477 245.73471069 C88.45877686 244.93328644 88.17316895 244.13186218 87.87890625 243.30615234 C87.5761377 242.42417175 87.27336914 241.54219116 86.96142578 240.63348389 C86.48552002 239.32990936 86.48552002 239.32990936 86 238 C85.50823205 236.5401733 85.01730545 235.08006283 84.52734375 233.61962891 C84.00016612 232.11263481 83.47007977 230.60665594 82.9375 229.1015625 C82.64077393 228.25864655 82.34404785 227.41573059 82.03833008 226.54727173 C78.19530762 215.66835719 74.25609621 204.82385739 70.31152344 193.98144531 C68.99959892 190.3738971 67.69112227 186.76511046 66.3828125 183.15625 C62.44858194 172.32447874 58.46808706 161.52206391 54.24491882 150.79943848 C52.05759521 145.22066084 50.12750685 139.58595368 48.3125 133.875 C45.15867045 124.18545667 41.67626421 114.64939568 38.0625 105.125 C34.38128537 95.41927595 30.79212122 85.70000855 27.4375 75.875 C21.48913235 58.4734039 15.09853129 41.2343763 8.6328125 24.01953125 C8.35450089 23.27844116 8.07618927 22.53735107 7.78944397 21.77380371 C6.43218446 18.16158732 5.07215888 14.55044525 3.70776367 10.94091797 C3.45924652 10.28169846 3.21072937 9.62247894 2.9546814 8.94328308 C2.27991764 7.15341293 1.60351361 5.3641614 0.92700195 3.57495117 C0 1 0 1 0 0 Z " fill="#9DC2C7" transform="translate(697,391)"/>
<path d="M0 0 C3.59886021 3.13839998 7.05779716 6.41149692 10.48193359 9.73876953 C11.78710938 10.98980469 11.78710938 10.98980469 13.11865234 12.26611328 C23.41085259 23.03464676 27.69263304 37.45368114 30.48193359 51.73876953 C30.72721204 52.80545852 30.72721204 52.80545852 30.9774456 53.89369678 C32.78529979 62.42734342 32.75046213 70.83065018 32.70898438 79.5012207 C32.70841921 81.16784661 32.70873888 82.83447301 32.70986938 84.50109863 C32.71043979 88.99415 32.69873646 93.48709311 32.68472147 97.98011947 C32.67216164 102.68728689 32.67103949 107.3944572 32.66867065 112.10163879 C32.66247125 121.0013288 32.6460814 129.90096928 32.62597167 138.80063754 C32.60356458 148.93854043 32.59260718 159.07644576 32.5825808 169.21436727 C32.56171371 190.05586842 32.52505685 210.89730173 32.48193359 231.73876953 C9.38193359 231.73876953 -13.71806641 231.73876953 -37.51806641 231.73876953 C-39.49806641 226.29376953 -39.49806641 226.29376953 -41.51806641 220.73876953 C-42.49692935 218.39649035 -43.48704694 216.05856334 -44.51806641 213.73876953 C-45.23994141 214.39876953 -45.96181641 215.05876953 -46.70556641 215.73876953 C-66.51323127 232.17491697 -91.39709617 237.02289388 -116.51806641 235.73876953 C-131.02268142 234.37953202 -144.04371502 229.7378495 -155.51806641 220.73876953 C-157.06494141 219.59408203 -157.06494141 219.59408203 -158.64306641 218.42626953 C-171.65909146 206.25911568 -180.75517683 189.26456211 -181.64038086 171.24951172 C-182.31898589 147.27896797 -178.80120159 130.49855286 -162.87353516 111.80908203 C-136.36917426 83.82150873 -97.99979181 82.02974098 -61.96728516 79.25439453 C-61.28813049 79.20148758 -60.60897583 79.14858063 -59.90924072 79.09407043 C-56.43733301 78.83632421 -52.99949133 78.68362155 -49.51806641 78.73876953 C-49.32026936 63.63178891 -49.32026936 63.63178891 -56.35009766 50.94189453 C-67.37562724 42.08774075 -82.14348379 43.78330235 -95.51806641 44.73876953 C-108.0544668 46.49453065 -121.53970901 51.79602478 -132.27978516 58.44970703 C-134.51806641 59.73876953 -134.51806641 59.73876953 -137.51806641 59.73876953 C-137.86474365 58.96500977 -138.2114209 58.19125 -138.56860352 57.39404297 C-139.32797549 55.69929645 -140.08737016 54.00456005 -140.84715271 52.30999756 C-142.31173135 49.04322352 -143.77436076 45.77560057 -145.23339844 42.50634766 C-147.91886667 36.49486097 -150.61637777 30.49310299 -153.42041016 24.53564453 C-153.84265869 23.62975586 -154.26490723 22.72386719 -154.69995117 21.79052734 C-155.47710786 20.12839481 -156.26486133 18.47116293 -157.06469727 16.81982422 C-157.40766846 16.08151367 -157.75063965 15.34320313 -158.10400391 14.58251953 C-158.4035498 13.95539063 -158.7030957 13.32826172 -159.01171875 12.68212891 C-159.71326101 9.98961376 -159.44700097 8.35434956 -158.51806641 5.73876953 C-156.63549805 4.30078125 -156.63549805 4.30078125 -154.17822266 3.16845703 C-152.82954102 2.53617187 -152.82954102 2.53617187 -151.45361328 1.89111328 C-150.03145508 1.25882812 -150.03145508 1.25882812 -148.58056641 0.61376953 C-147.66726563 0.18451172 -146.75396484 -0.24474609 -145.81298828 -0.68701172 C-140.58288787 -3.09293194 -135.39111184 -5.01538806 -129.85253906 -6.57519531 C-127.66438144 -7.21823264 -125.56838996 -7.96600787 -123.44384766 -8.79248047 C-86.92876735 -22.83182048 -31.91087645 -26.51199546 0 0 Z " fill="#9DC2C8" transform="translate(1497.51806640625,404.26123046875)"/>
<path d="M0 0 C0.75134216 0.00215515 1.50268433 0.0043103 2.27679443 0.00653076 C29.5069257 0.13192171 56.9658706 6.49721349 77.19140625 26.0703125 C94.63825998 44.727127 100.06083504 68.72244966 99.82910156 93.42041016 C99.82796937 95.14718092 99.82861418 96.8739536 99.83087158 98.60072327 C99.83200516 103.22571781 99.80871934 107.85028551 99.78057575 112.47518206 C99.75533235 117.33176968 99.75320222 122.18837032 99.74847412 127.04501343 C99.73611103 136.21370086 99.70338102 145.38219431 99.66307616 154.55079687 C99.6181492 165.00080658 99.59631913 175.45082624 99.57629442 185.90090871 C99.53464135 207.37157098 99.46137379 228.84196784 99.375 250.3125 C76.275 250.3125 53.175 250.3125 29.375 250.3125 C24.375 235.3125 24.375 235.3125 24.375 232.3125 C23.46621094 232.95316406 22.55742188 233.59382812 21.62109375 234.25390625 C9.73465353 242.49170113 -2.32438993 249.29961183 -16.625 252.3125 C-17.89730469 252.61800781 -17.89730469 252.61800781 -19.1953125 252.9296875 C-39.81790775 257.21871728 -63.16452585 255.33176698 -81.29296875 244.12890625 C-86.94727445 240.41487247 -91.36014732 236.59928224 -95.625 231.3125 C-96.46933594 230.49910156 -97.31367188 229.68570313 -98.18359375 228.84765625 C-110.81272491 215.73356645 -113.80162065 197.86621248 -113.8125 180.4375 C-113.82474609 179.41269531 -113.83699219 178.38789062 -113.84960938 177.33203125 C-113.88660932 157.91939386 -106.73688512 142.61151498 -93.5 128.625 C-84.40178179 119.89631726 -73.48047209 112.66950439 -61.625 108.3125 C-60.50222656 107.89484375 -59.37945313 107.4771875 -58.22265625 107.046875 C-34.5780436 98.92742726 -6.50184167 97.13898312 18.375 97.3125 C18.09138858 94.60310578 17.7983895 91.89527339 17.5 89.1875 C17.42136719 88.42695313 17.34273437 87.66640625 17.26171875 86.8828125 C16.76426505 82.44399487 15.92940691 78.52978431 14.375 74.3125 C14.189375 73.19875 14.189375 73.19875 14 72.0625 C13.53567444 70.14520799 13.53567444 70.14520799 11.61328125 69.36547852 C10.87464844 69.01799561 10.13601563 68.6705127 9.375 68.3125 C8.32505859 67.68202759 8.32505859 67.68202759 7.25390625 67.03881836 C0.23590523 63.02758106 -5.6518879 62.63913648 -13.625 62.875 C-15.29175781 62.88370117 -15.29175781 62.88370117 -16.9921875 62.89257812 C-26.63807493 63.03442941 -35.38604255 64.51673548 -44.375 68 C-45.04748779 68.25475098 -45.71997559 68.50950195 -46.4128418 68.77197266 C-52.43357596 71.11309488 -58.13223162 73.96191428 -63.83203125 76.9921875 C-66.625 78.3125 -66.625 78.3125 -69.625 78.3125 C-70.0782666 77.32032471 -70.5315332 76.32814941 -70.99853516 75.3059082 C-72.70922094 71.56148977 -74.42023868 67.81722311 -76.13134766 64.07299805 C-76.86646173 62.46431432 -77.60149037 60.85559153 -78.33642578 59.24682617 C-79.05035191 57.68407792 -79.76444202 56.12140456 -80.47869873 54.55880737 C-81.18477044 53.0136227 -81.89021638 51.46815194 -82.59503174 49.9223938 C-84.19415074 46.41948786 -85.8028729 42.92247878 -87.45214844 39.44287109 C-87.99129883 38.30027832 -88.53044922 37.15768555 -89.0859375 35.98046875 C-89.55563965 34.99715576 -90.0253418 34.01384277 -90.50927734 33.00073242 C-91.57924604 30.42274001 -92.18767304 28.0619039 -92.625 25.3125 C-82.17831594 19.83910436 -71.72803962 15.27107836 -60.625 11.3125 C-59.73039063 10.95542969 -58.83578125 10.59835937 -57.9140625 10.23046875 C-51.80673669 7.81258424 -45.56299572 6.21867379 -39.1875 4.6875 C-38.32938721 4.48116943 -37.47127441 4.27483887 -36.5871582 4.06225586 C-33.93910796 3.44585403 -31.28627106 2.86900411 -28.625 2.3125 C-27.71814453 2.12051025 -26.81128906 1.92852051 -25.87695312 1.73071289 C-17.26052425 0.08987187 -8.73456046 -0.04497268 0 0 Z " fill="#9DC2C7" transform="translate(582.625,385.6875)"/>
<path d="M0 0 C27.06 0 54.12 0 82 0 C82 19.8 82 39.6 82 60 C99.82 60 117.64 60 136 60 C136 80.13 136 100.26 136 121 C118.18 121 100.36 121 82 121 C82.06174977 140.30678501 82.06174977 140.30678501 82.16015625 159.61328125 C82.20844269 167.49170128 82.25250586 175.36998151 82.27099609 183.24853516 C82.28617918 189.60293573 82.3206551 195.95696971 82.36830902 202.31120682 C82.38310559 204.73115471 82.39104002 207.15115494 82.39188385 209.57114792 C82.39426033 212.97018926 82.42139687 216.36822311 82.45410156 219.76708984 C82.4490712 220.75971832 82.44404083 221.7523468 82.43885803 222.77505493 C82.53759008 229.44080787 83.75348908 235.11466101 87 241 C92.36545224 245.4264981 98.6975716 245.40051125 105.41015625 245.34765625 C114.46089739 244.47114269 121.89334008 240.40724124 129 235 C129.99 235 130.98 235 132 235 C132.4031543 236.15411377 132.80630859 237.30822754 133.22167969 238.49731445 C134.73432588 242.82698643 136.24789159 247.15633651 137.76171875 251.4855957 C138.41365782 253.35041845 139.06535582 255.21532549 139.71679688 257.08032227 C140.34966531 258.89205377 140.98292064 260.70365018 141.61657715 262.5151062 C142.23375405 264.28024752 142.84973305 266.04580817 143.46447754 267.8117981 C145.35654397 273.23047838 147.33221431 278.60576744 149.47753906 283.93041992 C150.09022627 286.35740567 149.89011346 287.67762446 149 290 C129.88007554 306.81075484 97.93448777 310.14912622 73.75 310.25 C71.91888672 310.2809375 71.91888672 310.2809375 70.05078125 310.3125 C51.21544332 310.3922263 32.71504504 305.3809094 18.75 292.25 C4.60212255 277.20522234 -0.52756756 257.67892972 -0.34057617 237.47705078 C-0.34123329 235.57203796 -0.34123329 235.57203796 -0.34190369 233.62854004 C-0.34275318 230.19546151 -0.32530052 226.76270704 -0.30418181 223.32970285 C-0.28523726 219.72363398 -0.28365074 216.11755505 -0.28010559 212.51144409 C-0.27083671 205.70489092 -0.24629403 198.89848489 -0.21605712 192.09199607 C-0.18235098 184.33367786 -0.16598664 176.57535207 -0.15097082 168.81697869 C-0.11973885 152.87788645 -0.06479267 136.93899652 0 121 C-10.89 121 -21.78 121 -33 121 C-33 100.87 -33 80.74 -33 60 C-22.11 60 -11.22 60 0 60 C0 40.2 0 20.4 0 0 Z " fill="#9DC2C7" transform="translate(1152,331)"/>
<path d="M0 0 C27.39 0 54.78 0 83 0 C83.01458252 7.76845459 83.02916504 15.53690918 83.04418945 23.54077148 C83.09296656 48.40836584 83.15638113 73.27590224 83.22898628 98.14343777 C83.24025419 102.00732733 83.25139268 105.87121726 83.26245117 109.73510742 C83.26465486 110.50432524 83.26685854 111.27354306 83.269129 112.0660705 C83.30448326 124.51450987 83.32935795 136.96294917 83.35034702 149.4114201 C83.37212399 162.1885539 83.40519241 174.96562266 83.44870156 187.74270111 C83.47518564 195.62427217 83.49290488 203.5057622 83.49934604 211.38737554 C83.50523291 217.43514137 83.52684399 223.48274773 83.55427551 229.53045845 C83.56306458 232.00839077 83.56677653 234.48634715 83.56500816 236.96429443 C83.56335459 240.35075277 83.58006291 243.73665027 83.60127258 247.12303162 C83.59642501 248.1006807 83.59157743 249.07832979 83.58658296 250.08560461 C83.65492493 256.71008548 84.08867892 264.08867892 89 269 C96.53181411 272.76590706 103.90133313 271.03035904 111.6171875 268.65625 C114 268 114 268 117 268 C118.16625974 274.21842986 118.16625974 274.21842986 118.67500305 276.93330383 C119.41647621 280.88989444 120.15907252 284.84626827 120.90380859 288.80224609 C121.67919346 292.923274 122.44943935 297.04524026 123.21704102 301.16772461 C123.53441456 302.86757531 123.85346333 304.56711398 124.17407227 306.26635742 C124.64501534 308.7640419 125.1101925 311.26274124 125.57421875 313.76171875 C125.71792404 314.51692307 125.86162933 315.27212738 126.00968933 316.05021667 C126.68977579 319.74495325 127.16876576 323.24045373 127 327 C121.27940006 329.69899007 115.60531179 331.21161715 109.4375 332.5625 C108.45225342 332.77865967 107.46700684 332.99481934 106.4519043 333.2175293 C103.63716406 333.82472976 100.81952429 334.41547744 98 335 C96.81148438 335.25265625 95.62296875 335.5053125 94.3984375 335.765625 C72.39728034 339.66456424 44.52020584 339.49164217 25.26025391 326.85888672 C10.51379082 316.37297257 4.17350494 302.4221074 1 285 C0.01148393 278.4732977 -0.13847211 272.11700111 -0.12025452 265.52197266 C-0.12110894 264.38399325 -0.12196337 263.24601385 -0.12284368 262.07355022 C-0.12448736 258.2703715 -0.1189953 254.46723714 -0.11352539 250.6640625 C-0.11268588 247.93385287 -0.11335777 245.20364409 -0.1139679 242.47343445 C-0.11449129 236.60058129 -0.11136377 230.72773927 -0.10573006 224.85488892 C-0.09759005 216.36381837 -0.09499727 207.8727532 -0.09374207 199.38167918 C-0.09155548 185.60422187 -0.08490604 171.82677049 -0.07543945 158.04931641 C-0.06625517 144.66878285 -0.05917931 131.28825091 -0.05493164 117.90771484 C-0.05466892 117.08241886 -0.05440619 116.25712287 -0.05413551 115.40681791 C-0.05283044 111.26639526 -0.05156674 107.1259726 -0.05032361 102.98554993 C-0.03996323 68.65702803 -0.02153151 34.32851716 0 0 Z " fill="#9DC2C7" transform="translate(324,304)"/>
<path d="M0 0 C27.39 0 54.78 0 83 0 C83 80.85 83 161.7 83 245 C55.61 245 28.22 245 0 245 C0 164.15 0 83.3 0 0 Z " fill="#9DC2C8" transform="translate(1004,391)"/>
<path d="M0 0 C0 0.99 0 1.98 0 3 C-1.38944164 3.91499816 -2.78405419 4.82307006 -4.203125 5.69140625 C-8.10902834 8.53592282 -11.83337257 12.66674514 -14 17 C-14.73452692 26.66427558 -15.29481006 35.09831805 -9 43 C-8.35675781 43.8559375 -7.71351562 44.711875 -7.05078125 45.59375 C-2.30949745 51.65442157 2.96956791 57.06894891 8.4375 62.4609375 C21.44072276 75.34522834 31.96124679 90.71719668 32.3125 109.5 C32.35878119 124.43511074 26.60912381 136.95702151 16.42578125 147.70703125 C7.16482193 156.46094932 -5.65381884 159.96411411 -18.25 160.4375 C-30.78868384 159.77756927 -43.62334406 155.67695019 -52.30859375 146.23828125 C-63.15751792 131.88162179 -66.64930624 117.81098377 -65 100 C-63.02107204 90.20598364 -57.34306278 81.65998717 -50 75 C-49.28328125 74.31421875 -48.5665625 73.6284375 -47.828125 72.921875 C-47.03921875 72.18453125 -46.2503125 71.4471875 -45.4375 70.6875 C-44.69371094 69.99011719 -43.94992187 69.29273438 -43.18359375 68.57421875 C-41 67 -41 67 -37 67 C-38.17500529 69.54584481 -39.41974468 71.55554443 -41.125 73.8125 C-43.394267 77.6702539 -43.70830368 79.5927771 -43 84 C-41.62017947 86.77795725 -40.44853749 87.86404177 -38 90 C-34.456503 91.00014579 -34.456503 91.00014579 -31 90 C-27.18494706 86.57623454 -26.64690368 83.35427858 -26.3125 78.3125 C-26.53275853 69.64232335 -29.95505139 61.89713101 -33.24389648 53.99194336 C-36.5319621 45.32958387 -37.04127017 32.76176038 -33.75390625 24.07421875 C-28.0442128 12.85262723 -13.8542679 -1.25000913 0 0 Z " fill="#FB8438" transform="translate(1063,212)"/>
<path d="M0 0 C7.59 0 15.18 0 23 0 C23 30.36 23 60.72 23 92 C16.4 92 9.8 92 3 92 C2.34 90.68 1.68 89.36 1 88 C0.236875 88.639375 -0.52625 89.27875 -1.3125 89.9375 C-7.07485709 94.35977404 -14.04428869 93.52612722 -21 93 C-28.10534289 91.3011458 -32.98241222 85.84220654 -37 80 C-43.31055067 68.60128135 -43.76845833 56.47394038 -40.4375 44.0625 C-37.18289253 34.846822 -31.8232029 28.29651619 -23 24 C-19.392112 22.79737067 -16.42781238 22.86752886 -12.625 22.875 C-11.31789063 22.87242187 -10.01078125 22.86984375 -8.6640625 22.8671875 C-5 23 -5 23 0 24 C0 16.08 0 8.16 0 0 Z " fill="#808080" transform="translate(1208,645)"/>
<path d="M0 0 C1.29545606 0.72869403 2.56923583 1.49794761 3.8125 2.3125 C4.740625 2.8384375 4.740625 2.8384375 5.6875 3.375 C12.93753988 7.87502475 17.23162658 15.38573365 19.33984375 23.515625 C21.52284374 36.43321175 19.14214361 47.62483258 11.58203125 58.3046875 C6.78652562 63.74594554 0.07109783 67.74113434 -7.20751953 68.53198242 C-18.75810032 69.14703344 -27.21390596 68.49923542 -36.4375 61.0625 C-43.38770699 54.58302416 -47.07111639 47.18890187 -47.5234375 37.60546875 C-47.74443948 25.17622087 -47.11748611 15.54364315 -38.2578125 6.0703125 C-28.50069606 -2.21403165 -11.95592563 -5.15664271 0 0 Z " fill="#808080" transform="translate(1437.1875,669.6875)"/>
<path d="M0 0 C8.9449305 4.96549292 14.38489128 11.11954843 17.796875 20.7265625 C20.88947893 32.31494045 19.51389519 43.95117967 13.69921875 54.4140625 C8.65087572 61.83892356 1.65554322 66.10263004 -7.015625 68.1015625 C-9.71133351 68.30933983 -12.26383726 68.43596329 -14.953125 68.4140625 C-15.65679199 68.40987305 -16.36045898 68.40568359 -17.08544922 68.40136719 C-26.75979331 68.19051897 -33.88908661 64.5251146 -40.640625 57.6015625 C-48.46363182 48.11334802 -49.30666232 36.15846956 -48.34228516 24.31494141 C-47.54380098 18.90458452 -45.05728354 14.55099106 -42.015625 10.1015625 C-41.63277344 9.48023438 -41.24992188 8.85890625 -40.85546875 8.21875 C-32.78417808 -3.29513418 -12.2203092 -5.06811273 0 0 Z " fill="#808080" transform="translate(991.015625,669.8984375)"/>
<path d="M0 0 C5.11895138 2.35076308 9.09945244 6.6805399 11.35913086 11.80744934 C13.69209185 18.15235072 13.95686842 23.88282151 13.85546875 30.59765625 C13.85122391 31.67252792 13.84697906 32.7473996 13.84260559 33.85484314 C13.82593339 37.25765998 13.78830223 40.65986488 13.75 44.0625 C13.73493837 46.38215285 13.72125256 48.70181507 13.70898438 51.02148438 C13.67863082 56.68140986 13.61988613 62.34002723 13.5625 68 C5.6425 68 -2.2775 68 -10.4375 68 C-10.49357422 63.08867188 -10.49357422 63.08867188 -10.55078125 58.078125 C-10.59699066 54.90748406 -10.64822653 51.73696144 -10.69995117 48.56640625 C-10.73320788 46.36270333 -10.76123746 44.15891509 -10.78393555 41.95507812 C-10.81746738 38.78739045 -10.86978336 35.62048531 -10.92578125 32.453125 C-10.93217117 31.46757629 -10.9385611 30.48202759 -10.94514465 29.46661377 C-10.97483589 28.08563507 -10.97483589 28.08563507 -11.00512695 26.67675781 C-11.02178154 25.46430389 -11.02178154 25.46430389 -11.03877258 24.22735596 C-11.53446064 21.45836213 -12.54256154 20.05210413 -14.4375 18 C-16.57169672 17.40677455 -16.57169672 17.40677455 -18.875 17.5625 C-20.01775391 17.56443359 -20.01775391 17.56443359 -21.18359375 17.56640625 C-24.02025424 18.11210697 -25.32841978 19.0350823 -27.4375 21 C-28.05091613 23.1838804 -28.05091613 23.1838804 -27.98339844 25.6550293 C-28.00311707 26.59577805 -28.02283569 27.53652679 -28.04315186 28.50578308 C-28.04499481 30.02465874 -28.04499481 30.02465874 -28.046875 31.57421875 C-28.06341125 32.61318802 -28.07994751 33.65215729 -28.09698486 34.72261047 C-28.14560857 38.04429958 -28.16686814 41.36553042 -28.1875 44.6875 C-28.21564758 46.93817428 -28.24557329 49.18882707 -28.27734375 51.43945312 C-28.35472296 56.95984918 -28.3951106 62.47878002 -28.4375 68 C-36.0275 68 -43.6175 68 -51.4375 68 C-51.4375 45.56 -51.4375 23.12 -51.4375 0 C-44.5075 0 -37.5775 0 -30.4375 0 C-30.4375 1.65 -30.4375 3.3 -30.4375 5 C-29.73367188 4.566875 -29.02984375 4.13375 -28.3046875 3.6875 C-19.15670691 -1.47167443 -10.24620053 -2.99260402 0 0 Z " fill="#818181" transform="translate(1516.4375,669)"/>
<path d="M0 0 C7.59 0 15.18 0 23 0 C23.03738281 3.10664062 23.07476563 6.21328125 23.11328125 9.4140625 C23.15953094 12.43252486 23.21075214 15.45086491 23.26245117 18.46923828 C23.29564549 20.56226124 23.32369445 22.65537253 23.34643555 24.74853516 C23.38008231 27.76242612 23.43240393 30.77551163 23.48828125 33.7890625 C23.49467117 34.72054108 23.5010611 35.65201965 23.50764465 36.61172485 C23.6249018 41.82741569 24.16877869 45.44499667 27 50 C28.41623216 50.05447047 29.83308191 50.09300508 31.25 50.125 C32.03890625 50.14820313 32.8278125 50.17140625 33.640625 50.1953125 C36.38989726 50.11496763 36.38989726 50.11496763 40 48 C40.33 32.16 40.66 16.32 41 0 C48.59 0 56.18 0 64 0 C64 22.44 64 44.88 64 68 C57.4 68 50.8 68 44 68 C43.34 66.68 42.68 65.36 42 64 C40.9275 64.639375 39.855 65.27875 38.75 65.9375 C31.76687212 70.10051854 23.88855354 69.58956558 16 69 C10.06177302 67.43022701 6.42288086 64.08542299 3 59 C-0.16501924 52.23930119 -0.39961694 46.46176856 -0.29296875 39.0625 C-0.28872391 37.94182129 -0.28447906 36.82114258 -0.28010559 35.66650391 C-0.26340311 32.11075126 -0.22576568 28.55557941 -0.1875 25 C-0.17244231 22.57943531 -0.1587558 20.15886167 -0.14648438 17.73828125 C-0.11608773 11.82512071 -0.0573479 5.91320532 0 0 Z " fill="#7F7F7F" transform="translate(1018,669)"/>
<path d="M0 0 C6.46559623 3.23279811 9.67777557 6.61069787 12.56982422 13.18017578 C13.90382107 18.29978259 13.74544959 23.22427165 13.6953125 28.4921875 C13.6924826 29.61569611 13.68965271 30.73920471 13.68673706 31.89675903 C13.67557303 35.47294927 13.65047501 39.0488859 13.625 42.625 C13.61496533 45.05468387 13.60584033 47.48437169 13.59765625 49.9140625 C13.57735062 55.8595505 13.53819384 61.80449251 13.5 67.75 C5.91 67.75 -1.68 67.75 -9.5 67.75 C-9.56058594 64.54796875 -9.62117188 61.3459375 -9.68359375 58.046875 C-9.74540153 54.94577719 -9.80878163 51.84471523 -9.87231445 48.74365234 C-9.91562691 46.58841135 -9.95730463 44.43313686 -9.99731445 42.27783203 C-10.05510618 39.17991033 -10.11877523 36.08215666 -10.18359375 32.984375 C-10.20030624 32.02070007 -10.21701874 31.05702515 -10.23423767 30.06414795 C-10.2641555 28.71320038 -10.2641555 28.71320038 -10.29467773 27.33496094 C-10.31799416 26.14915436 -10.31799416 26.14915436 -10.34178162 24.93939209 C-10.50266528 22.71311844 -10.70571594 20.8408093 -11.5 18.75 C-17.52683381 16.7410554 -21.73911448 17.44564579 -27.5 19.75 C-27.5 35.59 -27.5 51.43 -27.5 67.75 C-35.09 67.75 -42.68 67.75 -50.5 67.75 C-50.5 45.31 -50.5 22.87 -50.5 -0.25 C-43.9 -0.25 -37.3 -0.25 -30.5 -0.25 C-30.17 1.4 -29.84 3.05 -29.5 4.75 C-28.78457031 4.316875 -28.06914063 3.88375 -27.33203125 3.4375 C-18.36372062 -1.57454423 -9.96206364 -3.35189735 0 0 Z " fill="#808080" transform="translate(1144.5,669.25)"/>
<path d="M0 0 C4.85278569 3.81153837 7.95874306 7.71221898 9.984375 13.55859375 C10.22488403 16.13398743 10.22488403 16.13398743 10.21142578 18.8996582 C10.21127472 19.94035965 10.21112366 20.9810611 10.21096802 22.05329895 C10.20064545 23.16492905 10.19032288 24.27655914 10.1796875 25.421875 C10.1768576 26.5689946 10.17402771 27.7161142 10.17111206 28.897995 C10.15993197 32.55580143 10.13483095 36.21336153 10.109375 39.87109375 C10.09934241 42.35351208 10.09021705 44.83593426 10.08203125 47.31835938 C10.05999967 53.39853217 10.02548435 59.47852122 9.984375 65.55859375 C3.714375 65.55859375 -2.555625 65.55859375 -9.015625 65.55859375 C-9.345625 64.23859375 -9.675625 62.91859375 -10.015625 61.55859375 C-10.74265625 61.91953125 -11.4696875 62.28046875 -12.21875 62.65234375 C-20.25450167 66.36115221 -27.64105203 68.45087992 -36.37109375 65.859375 C-41.89172129 63.40461191 -45.54798113 59.70726233 -48.1171875 54.1953125 C-49.93832697 48.85066405 -50.18214076 43.2569398 -47.91796875 38.01953125 C-44.00636377 31.78182517 -39.48368959 27.81970815 -32.578125 25.30859375 C-25.63469526 23.84681907 -19.08546797 23.41130535 -12.015625 23.55859375 C-13.11348925 18.1507199 -13.11348925 18.1507199 -17.015625 14.55859375 C-23.45726109 13.69145043 -28.26820699 14.74353187 -34.015625 17.55859375 C-35.005625 17.55859375 -35.995625 17.55859375 -37.015625 17.55859375 C-38.995625 12.93859375 -40.975625 8.31859375 -43.015625 3.55859375 C-30.89955969 -4.07979525 -12.96965457 -7.89360011 0 0 Z " fill="#808080" transform="translate(1287.015625,671.44140625)"/>
<path d="M0 0 C-0.66 5.28 -1.32 10.56 -2 16 C-9.375 15.875 -9.375 15.875 -11.69287109 15.81982422 C-13.46287275 15.8051883 -15.23272455 15.90071486 -17 16 C-19.50847518 18.13867505 -19.50847518 18.13867505 -20 23 C-15.71 23 -11.42 23 -7 23 C-7 28.61 -7 34.22 -7 40 C-11.29 40 -15.58 40 -20 40 C-20 56.83 -20 73.66 -20 91 C-27.59 91 -35.18 91 -43 91 C-43 74.17 -43 57.34 -43 40 C-45.97 40 -48.94 40 -52 40 C-52 34.39 -52 28.78 -52 23 C-49.03 23 -46.06 23 -43 23 C-43.061875 21.845 -43.12375 20.69 -43.1875 19.5 C-43.16598799 13.4228559 -41.54686501 8.83181383 -37.625 4.1875 C-25.95984355 -5.53346371 -13.88778534 -4.01574516 0 0 Z " fill="#808080" transform="translate(948,646)"/>
<path d="M0 0 C7.59 0 15.18 0 23 0 C23 5.61 23 11.22 23 17 C27.95 17 32.9 17 38 17 C38 22.61 38 28.22 38 34 C33.05 34 28.1 34 23 34 C23.09684617 38.52118714 23.19951359 43.04143731 23.31738281 47.56201172 C23.35570301 49.10034021 23.39055056 50.63875925 23.421875 52.17724609 C23.46746059 54.38672276 23.5254634 56.59557448 23.5859375 58.8046875 C23.59748871 59.49432587 23.60903992 60.18396423 23.62094116 60.89450073 C23.64951022 64.8920154 23.64951022 64.8920154 26 68 C29.7687064 67.6510457 33.34308028 66.94242204 37 66 C37.83986084 67.93467942 38.67168027 69.87285129 39.5 71.8125 C39.9640625 72.89144531 40.428125 73.97039062 40.90625 75.08203125 C42 78 42 78 42 81 C35.08921553 84.72836156 28.91814439 86.49321672 21.125 86.5 C20.412229 86.50580078 19.69945801 86.51160156 18.96508789 86.51757812 C12.64087379 86.36927905 8.64628871 84.68370437 4.25 80.1875 C0.1382055 74.36245779 -0.28664549 69.20717622 -0.1953125 62.3203125 C-0.1924826 61.50754852 -0.18965271 60.69478455 -0.18673706 59.85739136 C-0.17560619 57.27977325 -0.15051515 54.70251181 -0.125 52.125 C-0.11496101 50.36979671 -0.10583677 48.61458794 -0.09765625 46.859375 C-0.07569015 42.57278074 -0.04120978 38.2864507 0 34 C-2.97 34 -5.94 34 -9 34 C-9 28.39 -9 22.78 -9 17 C-6.03 17 -3.06 17 0 17 C0 11.39 0 5.78 0 0 Z " fill="#818181" transform="translate(1311,652)"/>
<path d="M0 0 C1.46986359 0.00496994 1.46986359 0.00496994 2.96942139 0.01004028 C3.71073303 0.01430023 4.45204468 0.01856018 5.21582031 0.02294922 C5.46989531 6.32089792 5.64468736 12.61752288 5.76513672 18.91943359 C5.8153524 21.06153738 5.88354379 23.20329961 5.97021484 25.34423828 C6.67077912 43.09736114 6.67077912 43.09736114 3.18701172 47.70800781 C0.53298514 49.3496375 -1.77198118 50.24155376 -4.78417969 51.02294922 C-5.97785156 51.50505859 -7.17152344 51.98716797 -8.40136719 52.48388672 C-18.70470606 55.37475158 -28.38248637 57.02191245 -38.45214844 52.49951172 C-43.46949469 49.32269952 -47.89431468 44.69254423 -49.78417969 39.02294922 C-50.46356385 28.74073122 -50.16679304 21.02864756 -43.72167969 12.83544922 C-36.11730985 4.65231128 -25.26802249 2.09935181 -14.53417969 0.89794922 C-13.84710937 0.81158203 -13.16003906 0.72521484 -12.45214844 0.63623047 C-8.28580378 0.15284241 -4.19541622 -0.01845952 0 0 Z " fill="#FCFEFE" transform="translate(1442.7841796875,526.97705078125)"/>
<path d="M0 0 C0 14.85 0 29.7 0 45 C-17.00787402 54.4488189 -17.00787402 54.4488189 -25 55 C-25.81082031 55.07476563 -26.62164063 55.14953125 -27.45703125 55.2265625 C-35.09584146 55.64183401 -41.4424555 53.98614585 -48 50 C-53.65666234 44.56917399 -55.13645134 39.56554664 -55.3125 31.875 C-55.20971015 22.70614499 -52.73913435 16.08905183 -46.26953125 9.5703125 C-38.63454984 4.2875887 -30.49822834 2.96140697 -21.4375 1.75 C-20.25736328 1.57726562 -19.07722656 1.40453125 -17.86132812 1.2265625 C-11.75007522 0.36476299 -6.24001886 0 0 0 Z " fill="#FCFEFE" transform="translate(601,527)"/>
<path d="M0 0 C7.59 0 15.18 0 23 0 C23 22.44 23 44.88 23 68 C15.41 68 7.82 68 0 68 C0 45.56 0 23.12 0 0 Z " fill="#818181" transform="translate(1358,669)"/>
<path d="M0 0 C3.31173707 0.08518938 4.64411732 0.35100107 7.625 2 C12.41687833 7.51792051 12.05133801 14.06451498 11.94140625 21.01953125 C11.53701789 26.36367903 10.06790698 29.45229028 6.9375 33.8125 C3.676883 36.07681736 1.57116264 35.92007546 -2.3125 35.375 C-6.44277 33.12212545 -8.34863582 30.32459676 -9.8046875 25.84765625 C-11.57890482 17.20858269 -11.08615485 9.81628549 -6.3125 2.375 C-3.93025072 -0.00724928 -3.2622963 0.05482851 0 0 Z " fill="#FBFBFB" transform="translate(1422.3125,685.625)"/>
<path d="M0 0 C3.16259457 2.36636488 4.75470906 5.26412719 6 9 C6.51921975 16.76832628 6.9798458 25.02731016 3 32 C0.26132577 34.44260134 -1.39370222 34.91158157 -5 35.4375 C-8.93745664 34.86328757 -10.32676087 33.96223796 -13 31 C-16.87440684 23.39066497 -17.14037016 15.16611751 -14.75 7.0625 C-13.81417348 4.63278527 -12.99499222 2.99364397 -11.375 0.9375 C-7.56194452 -0.56765348 -4.01604671 -0.9019998 0 0 Z " fill="#FBFBFB" transform="translate(981,686)"/>
<path d="M0 0 C1.31677734 0.00966797 1.31677734 0.00966797 2.66015625 0.01953125 C4.9375 0.1875 4.9375 0.1875 6.9375 1.1875 C7.06113227 5.54734461 7.15184908 9.90626055 7.2121582 14.26733398 C7.2372981 15.75058768 7.27141592 17.23371753 7.31469727 18.71655273 C7.37538258 20.84910595 7.40371116 22.98002205 7.42578125 25.11328125 C7.45196533 26.39630127 7.47814941 27.67932129 7.50512695 29.0012207 C6.9375 32.1875 6.9375 32.1875 4.59057617 34.09838867 C1.32203733 35.44015289 -0.55851658 35.75957893 -4.0625 35.1875 C-8.85452374 32.05425371 -10.6458902 29.65249468 -12.0625 24.1875 C-12.81385629 16.08857814 -13.36950024 8.70752887 -8.0625 2.1875 C-4.79122414 0.00664943 -3.78873277 -0.06137859 0 0 Z " fill="#FCFCFC" transform="translate(1201.0625,685.8125)"/>
<path d="M0 0 C4.0226217 1.56435288 5.59149109 2.38723663 8 6 C8.73965025 10.59271203 8.60961194 14.02462089 6.125 18 C2.22131448 21.67405696 -1.12035242 21.26723838 -6.29296875 21.2265625 C-9.56189515 20.9529727 -11.51857974 20.15056422 -14 18 C-15.85726616 14.28546768 -15.58501089 10.04420575 -15 6 C-10.67136232 0.41833562 -6.90096599 -0.73114324 0 0 Z " fill="#818181" transform="translate(1373,642)"/>
<path d="M0 0 C0.66 0 1.32 0 2 0 C-0.93007386 8.56130956 -8.17187792 15.44453285 -16 19.75 C-30.1731759 25.65548996 -44.33043396 26.69567336 -59 22 C-69.6125156 17.48112239 -76.37653102 11.54150927 -81 1 C-78 2 -78 2 -77 4 C-76.01 4.33 -75.02 4.66 -74 5 C-74 6.65 -74 8.3 -74 10 C-73.01 10 -72.02 10 -71 10 C-70.67 11.32 -70.34 12.64 -70 14 C-68.68 14 -67.36 14 -66 14 C-65 15 -64 16 -63 17 C-60.39388923 17.72197162 -60.39388923 17.72197162 -58 18 C-58 18.66 -58 19.32 -58 20 C-45.4146116 22.31836102 -30.16629945 24.44419963 -19 17 C-17.34450469 16.61500109 -15.6777567 16.27206865 -14 16 C-14 15.34 -14 14.68 -14 14 C-12.68 14 -11.36 14 -10 14 C-9.67 12.02 -9.34 10.04 -9 8 C-8.39414063 7.90847656 -7.78828125 7.81695312 -7.1640625 7.72265625 C-4.46325816 6.8207631 -3.86564474 5.81772305 -2.375 3.4375 C-1.1484375 1.49609375 -1.1484375 1.49609375 0 0 Z " fill="#E6945E" transform="translate(1086,347)"/>
<path d="M0 0 C1.8871875 0.0309375 1.8871875 0.0309375 3.8125 0.0625 C3.8125 4.0225 3.8125 7.9825 3.8125 12.0625 C-0.36188766 14.44786438 -3.35334428 15.7070541 -8.1875 15.0625 C-10.0625 14 -10.0625 14 -11.1875 12.0625 C-11.69876266 8.04543626 -11.87148851 5.95876081 -9.375 2.6875 C-6.24617286 0.36322841 -3.78855873 -0.06210752 0 0 Z " fill="#FAFAFA" transform="translate(1271.1875,706.9375)"/>
<path d="M0 0 C30.36 0 60.72 0 92 0 C92.495 2.475 92.495 2.475 93 5 C92.50943367 4.26803658 92.50943367 4.26803658 92.00895691 3.52128601 C88.90019228 1.16716875 85.6009537 1.60791413 81.85668945 1.65942383 C81.02719788 1.65898575 80.1977063 1.65854767 79.34307861 1.65809631 C76.59957391 1.66018741 73.85667928 1.6835334 71.11328125 1.70703125 C69.21185134 1.71262607 67.3104171 1.7168967 65.40898132 1.71989441 C60.40294467 1.73135218 55.39716889 1.76082742 50.39123535 1.79400635 C45.28364593 1.82468712 40.17601438 1.83839548 35.06835938 1.85351562 C25.04545826 1.88569619 15.02275082 1.93690384 5 2 C4.34 3.32 3.68 4.64 3 6 C1 3 1 3 0 0 Z " fill="#A9BFC1" transform="translate(697,391)"/>
<path d="M0 0 C3 1 3 1 4 3 C4.99 3.33 5.98 3.66 7 4 C7 5.65 7 7.3 7 9 C7.99 9 8.98 9 10 9 C10.33 10.32 10.66 11.64 11 13 C12.32 13 13.64 13 15 13 C16 14 17 15 18 16 C20.60611077 16.72197162 20.60611077 16.72197162 23 17 C23 17.66 23 18.32 23 19 C23.81726562 19.13277344 24.63453125 19.26554687 25.4765625 19.40234375 C29.45200324 20.07667017 33.41303016 20.8138095 37.375 21.5625 C38.11105469 21.70107422 38.84710937 21.83964844 39.60546875 21.98242188 C41.40375048 22.32105934 43.20188999 22.66045191 45 23 C45 23.33 45 23.66 45 24 C31.78327127 24.80553426 19.36848615 21.63868734 8.90234375 13.3359375 C4.67045083 9.40054663 2.31138848 5.26996573 0 0 Z " fill="#DE9E72" transform="translate(1005,348)"/>
<path d="M0 0 C10.89 0 21.78 0 33 0 C33 0.33 33 0.66 33 1 C32.09644775 1.02505615 31.19289551 1.0501123 30.26196289 1.07592773 C26.9203572 1.17087317 23.57893748 1.27011621 20.23754883 1.37231445 C18.7893576 1.4157163 17.34111346 1.45738744 15.89282227 1.49731445 C13.81510441 1.55489062 11.73765427 1.61862028 9.66015625 1.68359375 C8.40855713 1.72025146 7.15695801 1.75690918 5.86743164 1.79467773 C3.10369496 1.67803906 3.10369496 1.67803906 2 3 C1.87677242 4.77903357 1.82210981 6.56286203 1.79467773 8.34594727 C1.77473251 9.4870546 1.75478729 10.62816193 1.73423767 11.80384827 C1.71752518 13.0454924 1.70081268 14.28713654 1.68359375 15.56640625 C1.66281265 16.83016586 1.64203156 18.09392548 1.62062073 19.39598083 C1.56616286 22.76118633 1.5159572 26.12640173 1.46777344 29.49169922 C1.41760241 32.92355901 1.36189345 36.35532831 1.30664062 39.78710938 C1.19929809 46.52466761 1.09755675 53.26229336 1 60 C0.67 60 0.34 60 0 60 C0 40.2 0 20.4 0 0 Z " fill="#A8BDC0" transform="translate(1119,391)"/>
<path d="M0 0 C-1.17500529 2.54584481 -2.41974468 4.55554443 -4.125 6.8125 C-6.38493583 10.65439092 -6.62739046 12.60826675 -6 17 C-4.1353694 20.3832553 -4.1353694 20.3832553 -2 23 C-2.99 23 -3.98 23 -5 23 C-5 22.34 -5 21.68 -5 21 C-5.99 20.67 -6.98 20.34 -8 20 C-9.26237731 17.47524538 -9.09856404 15.68799534 -9.0625 12.875 C-9.05347656 11.96492188 -9.04445313 11.05484375 -9.03515625 10.1171875 C-9.02355469 9.41851562 -9.01195312 8.71984375 -9 8 C-11.31 9.32 -13.62 10.64 -16 12 C-14.71060878 8.13182635 -12.8203751 6.88934164 -9.6875 4.3125 C-8.23923828 3.10013672 -8.23923828 3.10013672 -6.76171875 1.86328125 C-4 0 -4 0 0 0 Z " fill="#F29153" transform="translate(1026,279)"/>
<path d="M0 0 C0 0.99 0 1.98 0 3 C-1.38944164 3.91499816 -2.78405419 4.82307006 -4.203125 5.69140625 C-8.10902834 8.53592282 -11.83337257 12.66674514 -14 17 C-14.09861981 19.80196291 -14.13896076 22.57354047 -14.125 25.375 C-14.12886719 26.14328125 -14.13273437 26.9115625 -14.13671875 27.703125 C-14.13478516 28.82074219 -14.13478516 28.82074219 -14.1328125 29.9609375 C-14.13168457 30.63946777 -14.13055664 31.31799805 -14.12939453 32.01708984 C-13.99266834 34.11235417 -13.56770955 35.98229148 -13 38 C-13.99 37.67 -14.98 37.34 -16 37 C-16.05814085 33.41673499 -16.09364357 29.83359162 -16.125 26.25 C-16.14175781 25.23421875 -16.15851563 24.2184375 -16.17578125 23.171875 C-16.18222656 22.1921875 -16.18867187 21.2125 -16.1953125 20.203125 C-16.20578613 19.30239258 -16.21625977 18.40166016 -16.22705078 17.47363281 C-15.7945584 12.7617911 -13.49457342 10.05775175 -10 7 C-9.34 7 -8.68 7 -8 7 C-8.95865509 4.66924071 -8.95865509 4.66924071 -12 3 C-4.71428571 -0.42857143 -4.71428571 -0.42857143 0 0 Z " fill="#F1965C" transform="translate(1063,212)"/>
<path d="M0 0 C0.33 0 0.66 0 1 0 C0.63159186 4.27547337 0.23098285 8.26628976 -1.0625 12.375 C-3.5099574 21.83850193 -1.73966518 28.94389803 2.1875 37.625 C3.174123 40.50897492 3.14076409 42.97357207 3 46 C-2.72826547 37.4076018 -4.4851827 27.70709584 -4.5625 17.5625 C-4.57684082 16.73500244 -4.59118164 15.90750488 -4.60595703 15.05493164 C-4.50838984 9.07020817 -2.98915223 5.17604691 0 0 Z " fill="#F59D68" transform="translate(1032,232)"/>
<path d="M0 0 C23.43 0 46.86 0 71 0 C71 0.33 71 0.66 71 1 C48.56 1 26.12 1 3 1 C2.67 1.99 2.34 2.98 2 4 C1.34 4.66 0.68 5.32 0 6 C-1 3 -1 3 0 0 Z " fill="#A9BEC1" transform="translate(891,391)"/>
<path d="M0 0 C5.68154882 8.52232324 6.16810464 19.05312124 5 29 C4.08881704 33.46819562 2.63149702 37.7464542 1 42 C-0.35255083 38.61862293 0.41026962 36.50113679 1.47949219 33.13623047 C2.55924057 28.70480536 2.483199 24.10308617 2.625 19.5625 C2.66367188 18.54478516 2.70234375 17.52707031 2.7421875 16.47851562 C2.83580872 13.98585064 2.92153993 11.4931805 3 9 C2.34 9 1.68 9 1 9 C-1 6 -1 6 -0.625 2.8125 C-0.41875 1.884375 -0.2125 0.95625 0 0 Z " fill="#EF9A64" transform="translate(1090,301)"/>
<path d="M0 0 C1.98 0.495 1.98 0.495 4 1 C4 1.66 4 2.32 4 3 C4.81726562 3.13277344 5.63453125 3.26554687 6.4765625 3.40234375 C10.45200324 4.07667017 14.41303016 4.8138095 18.375 5.5625 C19.11105469 5.70107422 19.84710937 5.83964844 20.60546875 5.98242188 C22.40375048 6.32105934 24.20188999 6.66045191 26 7 C26 7.33 26 7.66 26 8 C16.86792887 8.55658221 7.11469412 7.5081634 -1 3 C-0.67 2.01 -0.34 1.02 0 0 Z " fill="#F1A06D" transform="translate(1024,364)"/>
<path d="M0 0 C-0.99 1.485 -0.99 1.485 -2 3 C-4.57421875 3.328125 -4.57421875 3.328125 -7.6875 3.25 C-8.75871094 3.22421875 -9.82992187 3.1984375 -10.93359375 3.171875 C-14.35584325 2.98005465 -17.62982292 2.61275947 -21 2 C-21.66 4.31 -22.32 6.62 -23 9 C-23.33 9 -23.66 9 -24 9 C-24 6.36 -24 3.72 -24 1 C-21.125109 0.8312433 -18.25011104 0.66492885 -15.375 0.5 C-14.56675781 0.45230469 -13.75851562 0.40460937 -12.92578125 0.35546875 C-8.61012369 0.10986222 -4.32496331 -0.05598658 0 0 Z " fill="#A7C1C4" transform="translate(732,667)"/>
<path d="M0 0 C0.66 0 1.32 0 2 0 C0.63350805 4.00695297 -1.17103527 6.6767174 -4 9.8125 C-4.70125 10.60269531 -5.4025 11.39289063 -6.125 12.20703125 C-8 14 -8 14 -10 14 C-9.67 12.02 -9.34 10.04 -9 8 C-8.39414063 7.90847656 -7.78828125 7.81695312 -7.1640625 7.72265625 C-4.46325816 6.8207631 -3.86564474 5.81772305 -2.375 3.4375 C-1.1484375 1.49609375 -1.1484375 1.49609375 0 0 Z " fill="#EB9054" transform="translate(1086,347)"/>
<path d="M0 0 C1.32 0 2.64 0 4 0 C2.83623751 2.5214854 1.56703966 4.60352047 -0.0625 6.875 C-2.04545418 10.07331319 -2.64695318 12.29300838 -3 16 C-3.33 16 -3.66 16 -4 16 C-4.25 8.375 -4.25 8.375 -2 5 C-3.32 5.33 -4.64 5.66 -6 6 C-4 4 -2 2 0 0 Z " fill="#EA935E" transform="translate(1022,279)"/>
<path d="M0 0 C0.33 0.66 0.66 1.32 1 2 C0.2884375 3.0828125 0.2884375 3.0828125 -0.4375 4.1875 C-2.41129795 7.74033631 -2.35870255 9.98253148 -2 14 C-1.1025173 16.83378132 -1.1025173 16.83378132 0 19 C-3.29624584 16.28059718 -4.86049764 14.85251444 -5.5625 10.5625 C-4.86754775 6.16113576 -3.16081075 3.16081075 0 0 Z " fill="#FEEFD9" transform="translate(1024,282)"/>
<path d="M0 0 C4.88049925 3.9419417 9.0580583 8.11950075 13 13 C12.01 13.495 12.01 13.495 11 14 C11 13.34 11 12.68 11 12 C9.02 11.34 7.04 10.68 5 10 C5 8.68 5 7.36 5 6 C2.525 5.01 2.525 5.01 0 4 C0 2.68 0 1.36 0 0 Z " fill="#F0945C" transform="translate(1062,266)"/>
<path d="M0 0 C0 4.00492349 -1.34805694 5.05883496 -4 8 C-5.71013272 9.48470614 -7.46108032 10.92373341 -9.25 12.3125 C-10.14203125 13.00988281 -11.0340625 13.70726562 -11.953125 14.42578125 C-12.62859375 14.94527344 -13.3040625 15.46476563 -14 16 C-14.66 15.67 -15.32 15.34 -16 15 C-14.64455078 13.75283203 -14.64455078 13.75283203 -13.26171875 12.48046875 C-12.07028184 11.38284577 -10.87887729 10.28518768 -9.6875 9.1875 C-9.09259766 8.64029297 -8.49769531 8.09308594 -7.88476562 7.52929688 C-7.30791016 6.99755859 -6.73105469 6.46582031 -6.13671875 5.91796875 C-5.60780029 5.43094482 -5.07888184 4.9439209 -4.53393555 4.44213867 C-2.9907165 2.99127207 -1.48984144 1.50546232 0 0 Z " fill="#EBF7F8" transform="translate(845,688)"/>
<path d="M0 0 C2.25 2.5 2.25 2.5 4 5 C-1.50808397 4.40984815 -6.64878069 3.43336231 -12 2 C-12 1.67 -12 1.34 -12 1 C-7.915021 0.45533613 -4.1274515 0 0 0 Z " fill="#AAC5C8" transform="translate(374,635)"/>
<path d="M0 0 C0.268125 0.556875 0.53625 1.11375 0.8125 1.6875 C1.94415176 4.04199745 1.94415176 4.04199745 3.5625 6.125 C5.63796864 10.27593728 5.74176443 14.41409243 6 19 C4.12501563 16.18752345 3.04059662 13.77642791 1.875 10.625 C1.52179688 9.68914062 1.16859375 8.75328125 0.8046875 7.7890625 C0.00986798 5.03420261 -0.15533287 2.84776932 0 0 Z " fill="#EB9159" transform="translate(1029,259)"/>
<path d="M0 0 C2.6486859 3.19668988 4.93992341 6.39486597 7 10 C6.01 10.495 6.01 10.495 5 11 C4.01 10.67 3.02 10.34 2 10 C0.47839986 6.3962102 0 3.94779314 0 0 Z " fill="#EE975F" transform="translate(1050,250)"/>
<path d="M0 0 C-0.61875 0.28875 -1.2375 0.5775 -1.875 0.875 C-4.13325765 1.93720042 -4.13325765 1.93720042 -6 4 C-6.99 3.67 -7.98 3.34 -9 3 C-10.99961564 2.96079185 -13.00049364 2.95556653 -15 3 C-12.41464321 1.27642881 -10.96188386 0.55264982 -8.0625 -0.1875 C-7.39347656 -0.36667969 -6.72445312 -0.54585938 -6.03515625 -0.73046875 C-3.75319112 -1.03268678 -2.17973341 -0.68756692 0 0 Z " fill="#ADC4CA" transform="translate(542,393)"/>
<path d="M0 0 C1 3 1 3 1 6 C-0.65 5.67 -2.3 5.34 -4 5 C-4.33 5.66 -4.66 6.32 -5 7 C-6.32 6.67 -7.64 6.34 -9 6 C-6.03 4.02 -3.06 2.04 0 0 Z " fill="#F09150" transform="translate(1049,216)"/>
<path d="M0 0 C0.99 0.33 1.98 0.66 3 1 C1.4375 3.5 1.4375 3.5 -1 6 C-4.75 6.3125 -4.75 6.3125 -8 6 C-8.33 5.34 -8.66 4.68 -9 4 C-7.88625 3.896875 -6.7725 3.79375 -5.625 3.6875 C-4.42875 3.460625 -3.2325 3.23375 -2 3 C-1.34 2.01 -0.68 1.02 0 0 Z " fill="#FEF1DA" transform="translate(1033,297)"/>
<path d="M0 0 C0.33 0 0.66 0 1 0 C1.02707139 2.24993359 1.04642829 4.49996095 1.0625 6.75 C1.07410156 8.00296875 1.08570313 9.2559375 1.09765625 10.546875 C1.02021027 13.28536501 0.82780815 15.41880293 0 18 C-1.32 17.67 -2.64 17.34 -4 17 C-3.51917969 16.30519531 -3.03835938 15.61039062 -2.54296875 14.89453125 C-0.8061222 11.63629506 -0.51385179 9.35210254 -0.3125 5.6875 C-0.21388672 4.08455078 -0.21388672 4.08455078 -0.11328125 2.44921875 C-0.05720703 1.23685547 -0.05720703 1.23685547 0 0 Z " fill="#E99864" transform="translate(1037,284)"/>
<path d="M0 0 C1.82421875 0.2265625 1.82421875 0.2265625 4 1 C5.51953125 2.9609375 5.51953125 2.9609375 6.8125 5.375 C7.25207031 6.16648437 7.69164062 6.95796875 8.14453125 7.7734375 C9 10 9 10 8 13 C6.66388095 11.0226631 5.33100742 9.04327287 4 7.0625 C3.6184375 6.49853516 3.236875 5.93457031 2.84375 5.35351562 C0 1.11328125 0 1.11328125 0 0 Z " fill="#FEEFDB" transform="translate(1080,284)"/>
<path d="M0 0 C3 1 3 1 4 3 C4.99 3.33 5.98 3.66 7 4 C7 5.98 7 7.96 7 10 C3.60582235 6.87378374 1.3937282 4.43458973 0 0 Z " fill="#E9935C" transform="translate(1005,348)"/>
<path d="M0 0 C2 1 2 1 3.125 4 C4.27521462 8.32229088 4.18124209 12.55956873 4 17 C3.34 17 2.68 17 2 17 C1.34 11.39 0.68 5.78 0 0 Z " fill="#B0C9CB" transform="translate(599,464)"/>
<path d="M0 0 C3.63 0 7.26 0 11 0 C11 0.33 11 0.66 11 1 C8.36 1 5.72 1 3 1 C2.34 3.31 1.68 5.62 1 8 C0.67 8 0.34 8 0 8 C0 5.36 0 2.72 0 0 Z " fill="#B2C8CA" transform="translate(708,668)"/>
<path d="M0 0 C3.25543229 0.34879632 4.01873107 1.02133261 6.25 3.5625 C7.11625 4.7690625 7.11625 4.7690625 8 6 C5.03 5.01 2.06 4.02 -1 3 C-0.67 2.01 -0.34 1.02 0 0 Z " fill="#E79A6A" transform="translate(1024,364)"/>
<path d="M0 0 C0.33 0.99 0.66 1.98 1 3 C0.01 3.33 -0.98 3.66 -2 4 C-2.69658363 5.65438613 -3.36096883 7.32254318 -4 9 C-5.625 10.8125 -5.625 10.8125 -7 12 C-5.63855967 6.80177328 -3.53269829 3.90456127 0 0 Z " fill="#EC9762" transform="translate(1009,291)"/>
<path d="M0 0 C0 0.99 0 1.98 0 3 C-0.99 3.33 -1.98 3.66 -3 4 C-3 3.34 -3 2.68 -3 2 C-5.31 2.33 -7.62 2.66 -10 3 C-6.88378718 -0.11621282 -4.21175599 -0.11383124 0 0 Z " fill="#EEA579" transform="translate(1063,212)"/>
<path d="M0 0 C0.66 0.33 1.32 0.66 2 1 C1.01 2.485 1.01 2.485 0 4 C0 4.99 0 5.98 0 7 C-0.99 7.495 -0.99 7.495 -2 8 C-2.66 6.35 -3.32 4.7 -4 3 C-2.68 2.01 -1.36 1.02 0 0 Z " fill="#8D8D8D" transform="translate(1248,672)"/>
<path d="M0 0 C1.98 0.99 1.98 0.99 4 2 C4 3.65 4 5.3 4 7 C3.01 7.495 3.01 7.495 2 8 C1.34 5.36 0.68 2.72 0 0 Z " fill="#ABC4C8" transform="translate(609,624)"/>
<path d="M0 0 C-0.33 0.99 -0.66 1.98 -1 3 C-4.5625 4.6875 -4.5625 4.6875 -8 6 C-8.66 5.34 -9.32 4.68 -10 4 C-8.71086513 3.32845067 -7.41859796 2.66291141 -6.125 2 C-5.40570312 1.62875 -4.68640625 1.2575 -3.9453125 0.875 C-2 0 -2 0 0 0 Z " fill="#ABC5C8" transform="translate(1277,570)"/>
<path d="M0 0 C0.33 0.99 0.66 1.98 1 3 C-0.375 4.5 -0.375 4.5 -2 6 C-2.66 6 -3.32 6 -4 6 C-4 6.99 -4 7.98 -4 9 C-4.66 9 -5.32 9 -6 9 C-4.68775452 5.06326356 -3.08089673 2.77280706 0 0 Z " fill="#FEECD8" transform="translate(1055,220)"/>
<path d="M0 0 C2.5654594 2.5654594 2.54046087 4.47686668 3 8 C1.68 8 0.36 8 -1 8 C-0.67 5.36 -0.34 2.72 0 0 Z " fill="#ABC6C8" transform="translate(1292,592)"/>
<path d="M0 0 C0.99 0.33 1.98 0.66 3 1 C0.60490662 3.89932357 -1.31245243 4.50168276 -5 5 C-5 4.34 -5 3.68 -5 3 C-4.01 3 -3.02 3 -2 3 C-2 2.34 -2 1.68 -2 1 C-1.34 0.67 -0.68 0.34 0 0 Z " fill="#AAC5C9" transform="translate(1365,459)"/>
<path d="M0 0 C0.33 0.66 0.66 1.32 1 2 C0.0625 4.125 0.0625 4.125 -1 6 C-1.66 5.67 -2.32 5.34 -3 5 C-3.66 6.32 -4.32 7.64 -5 9 C-5 4.61031544 -2.87194899 3.23094261 0 0 Z " fill="#EE9A62" transform="translate(1039,223)"/>
<path d="M0 0 C0.33 1.32 0.66 2.64 1 4 C0.34 4 -0.32 4 -1 4 C-1 4.66 -1 5.32 -1 6 C-1.66 6 -2.32 6 -3 6 C-3.33 6.99 -3.66 7.98 -4 9 C-4.33 8.01 -4.66 7.02 -5 6 C-3.59554165 3.7363436 -1.8032087 1.9791315 0 0 Z " fill="#AEC6CA" transform="translate(1333,518)"/>
<path d="M0 0 C0 1.65 0 3.3 0 5 C-1.98 5.99 -1.98 5.99 -4 7 C-3.625 4.0625 -3.625 4.0625 -3 1 C-1 0 -1 0 0 0 Z " fill="#F08B48" transform="translate(1080,354)"/>
<path d="M0 0 C3.24299151 2.38957269 5.50902342 4.2047869 7 8 C4.625 7.375 4.625 7.375 2 6 C0.6875 2.875 0.6875 2.875 0 0 Z " fill="#F1975F" transform="translate(1077,282)"/>
<path d="M0 0 C2.18975773 3.28463659 2.99806563 6.20696275 4 10 C3.34 10 2.68 10 2 10 C-0.4294516 6.3558226 -0.16179575 4.28758728 0 0 Z " fill="#FEE8D0" transform="translate(1029,264)"/>
</svg>
