<?xml version="1.0" encoding="UTF-8"?>
<svg version="1.1" xmlns="http://www.w3.org/2000/svg" width="406" height="614">
<path d="M0 0 C0.78515625 1.83984375 0.78515625 1.83984375 1 4 C-2.31889327 10.18333227 -8.98322659 14.4607537 -14.44799805 18.64624023 C-32.10842572 32.24894387 -50.75593096 49.87965219 -54 73 C-54.19193603 77.77227168 -54.18581132 82.54424854 -54.18530273 87.31982422 C-54.18747381 89.59752533 -54.20561692 91.87472908 -54.22460938 94.15234375 C-54.30171275 113.40007757 -49.62356751 128.39212119 -39.89624023 144.89746094 C-37 149.81914389 -37 149.81914389 -37 152 C-36.34 152 -35.68 152 -35 152 C-33.91408387 153.58224899 -32.9075854 155.21920412 -31.9375 156.875 C-28.78309679 161.99433354 -25.23407778 166.26586333 -21.13671875 170.6484375 C-18.65357529 173.38125717 -16.50705985 176.2731112 -14.3359375 179.25390625 C-11.79731472 182.57193076 -8.71332594 185.32523221 -5.6875 188.1875 C-4 190 -4 190 -4 192 C-3.360625 192.268125 -2.72125 192.53625 -2.0625 192.8125 C0 194 0 194 1 197 C1.66 197.33 2.32 197.66 3 198 C3.66 198.33 4.32 198.66 5 199 C5.33 199.99 5.66 200.98 6 202 C7.3281968 202.67684229 8.6623566 203.34202406 10 204 C11.76171875 205.78515625 11.76171875 205.78515625 13.6875 208.0625 C18.96137547 214.10881178 24.66282869 219.69151439 30.41088867 225.28540039 C31.13252197 225.99559326 31.85415527 226.70578613 32.59765625 227.4375 C33.25258057 228.07558594 33.90750488 228.71367187 34.58227539 229.37109375 C36 231 36 231 36 233 C36.99 233.33 37.98 233.66 39 234 C40.47265625 235.4609375 40.47265625 235.4609375 42.0625 237.375 C44.92860054 240.76001558 47.86737252 244.05228794 50.875 247.3125 C59.48093677 256.76343056 67.26361113 266.83857612 75 277 C75.60199219 277.77730469 76.20398438 278.55460937 76.82421875 279.35546875 C77.33597656 280.02191406 77.84773438 280.68835938 78.375 281.375 C78.79523438 281.91898437 79.21546875 282.46296875 79.6484375 283.0234375 C81.62030641 285.90715331 83.28956257 288.95751183 85 292 C85.61359375 293.0621875 86.2271875 294.124375 86.859375 295.21875 C88.56160309 298.17303015 90.25008726 301.13420877 91.92675781 304.10302734 C92.63087433 305.34756451 93.33844563 306.59015473 94.04980469 307.83056641 C99.18478137 316.82040542 103.06709232 325.85709963 106.24707031 335.70922852 C106.79898544 337.38841778 107.37469611 339.05983574 107.96386719 340.72631836 C122.14139157 381.3514065 119.15415794 427.42910774 103.74462891 467.08056641 C103.12255965 468.6840774 102.5319517 470.29974751 101.94921875 471.91796875 C97.68657522 483.42898411 91.33759074 494.20484299 84 504 C83.54367187 504.63679688 83.08734375 505.27359375 82.6171875 505.9296875 C62.96819873 532.98915204 62.96819873 532.98915204 51 537 C51 537.66 51 538.32 51 539 C48.94524572 540.49243247 46.90402069 541.85171654 44.75 543.1875 C44.11610352 543.58678711 43.48220703 543.98607422 42.82910156 544.39746094 C30.72107723 551.97934724 18.47635071 559.13739923 5 564 C4.07960938 564.33451172 4.07960938 564.33451172 3.140625 564.67578125 C-18.87063262 572.5309438 -41.99613006 576.1753876 -65.3125 576.1875 C-66.54162109 576.19974609 -67.77074219 576.21199219 -69.03710938 576.22460938 C-77.22285273 576.23756834 -84.95168288 575.4473795 -93 574 C-94.74329234 573.72401163 -96.48677059 573.44919393 -98.23046875 573.17578125 C-114.7680071 570.37502948 -129.18311207 564.81254091 -144 557 C-145.49080078 556.26716797 -145.49080078 556.26716797 -147.01171875 555.51953125 C-156.80385922 550.54025982 -165.44802894 543.82840308 -174 537 C-174.5676709 536.5555957 -175.1353418 536.11119141 -175.72021484 535.65332031 C-177.18495237 534.48170196 -178.59741143 533.2453477 -180 532 C-180 531.34 -180 530.68 -180 530 C-180.53625 529.773125 -181.0725 529.54625 -181.625 529.3125 C-189.06105482 525.20310128 -193.88642578 518.61217886 -199 512 C-199.68449219 511.11997314 -199.68449219 511.11997314 -200.3828125 510.22216797 C-205.9927887 502.95870493 -210.9102758 495.86020107 -214.8046875 487.50390625 C-216.2577797 484.4600105 -218.1169671 481.79417785 -220 479 C-224.20169504 471.72949015 -226.90259541 463.99082455 -229.58984375 456.07421875 C-230.65193649 452.95045835 -231.85762091 449.92167992 -233.125 446.875 C-246.73567728 408.33047693 -240.28578334 359.16295626 -223 323 C-216.12996653 309.15860514 -207.66882482 297.01511836 -197.38427734 285.54736328 C-196.18679826 284.20880553 -195.00765526 282.85388652 -193.83203125 281.49609375 C-182.7320912 268.80738085 -170.85350181 256.66838798 -157 247 C-156.25363281 246.47019531 -155.50726563 245.94039062 -154.73828125 245.39453125 C-148.62218949 241.29711025 -141.49919887 238.08546355 -134 239 C-132 241 -132 241 -131.5703125 243.28125 C-132.16585733 247.04942457 -134.26433377 248.9192269 -136.875 251.5 C-142.78835948 257.64746609 -147.99217009 264.10072354 -153 271 C-153.57234375 271.69867188 -154.1446875 272.39734375 -154.734375 273.1171875 C-159.99340543 280.47392108 -159.34550947 291.40459008 -158 300 C-156.4766266 304.12671756 -154.4853275 307.40515129 -152 311 C-152 311.66 -152 312.32 -152 313 C-151.34 313 -150.68 313 -150 313 C-149.2575 314.010625 -148.515 315.02125 -147.75 316.0625 C-142.65881757 322.16196061 -134.68292401 326.05498834 -126.9609375 327.61328125 C-119.08704783 328.00143074 -113.78856761 325.16178253 -107.875 320.2265625 C-97.30758841 309.77923513 -95.3980044 297.02276134 -95.25 282.8125 C-95.37377242 270.01066094 -97.59784268 258.95386467 -102 247 C-102.58330783 245.33898942 -103.16533811 243.67752965 -103.74609375 242.015625 C-106.26394298 234.92964774 -109.00872603 227.95190206 -111.875 221 C-114.71029638 213.95379175 -117.23081242 206.81143154 -119.6875 199.625 C-120.06825684 198.53832031 -120.44901367 197.45164063 -120.84130859 196.33203125 C-126.54724872 179.37263936 -127.4862597 163.37001889 -127.39111328 145.58007812 C-127.37502755 142.00612221 -127.39104175 138.43329682 -127.41015625 134.859375 C-127.43972632 104.14272963 -119.94847833 78.44671784 -101 54 C-100.34 53.01 -99.68 52.02 -99 51 C-98.34 51 -97.68 51 -97 51 C-96.65195312 50.17822266 -96.65195312 50.17822266 -96.296875 49.33984375 C-92.00600671 41.59818681 -84.21179751 34.10508066 -76.59375 29.56640625 C-74.21819894 28.13177376 -72.03987042 26.5887564 -69.8125 24.9375 C-59.08818974 17.375898 -47.12243784 11.00005596 -35 6 C-33.96617187 5.55914063 -32.93234375 5.11828125 -31.8671875 4.6640625 C-23.43250177 1.21441562 -8.96264714 -4.48132357 0 0 Z " fill="#FB8438" transform="translate(265,19)"/>
<path d="M0 0 C-5.6457942 6.26301929 -15.22483626 9.19452855 -23 12 C-23.61359375 12.22300781 -24.2271875 12.44601562 -24.859375 12.67578125 C-46.87063262 20.5309438 -69.99613006 24.1753876 -93.3125 24.1875 C-94.54162109 24.19974609 -95.77074219 24.21199219 -97.03710938 24.22460938 C-105.22089853 24.23756524 -112.95609926 23.46993512 -121 22 C-121.9475415 21.83798096 -122.89508301 21.67596191 -123.87133789 21.5090332 C-126.5435287 21.04786824 -129.20923645 20.55933767 -131.875 20.0625 C-132.75929687 19.90587891 -133.64359375 19.74925781 -134.5546875 19.58789062 C-139.75029939 18.61757918 -144.22833511 17.28181795 -149 15 C-145.34606463 13.73176515 -142.50929974 14.24284679 -138.75 14.9375 C-137.67234375 15.13214844 -136.5946875 15.32679688 -135.484375 15.52734375 C-134.66453125 15.68332031 -133.8446875 15.83929687 -133 16 C-133 16.66 -133 17.32 -133 18 C-132.05640625 18.07347656 -132.05640625 18.07347656 -131.09375 18.1484375 C-130.2378125 18.22320313 -129.381875 18.29796875 -128.5 18.375 C-127.6646875 18.44460938 -126.829375 18.51421875 -125.96875 18.5859375 C-123 19 -123 19 -119.44726562 20.00708008 C-114.57909538 21.23804793 -109.87541415 21.30586731 -104.875 21.30078125 C-103.45550049 21.30720894 -103.45550049 21.30720894 -102.00732422 21.31376648 C-100.0172607 21.31947975 -98.02717632 21.32003235 -96.03710938 21.31567383 C-93.00874996 21.31250914 -89.98136433 21.33602729 -86.953125 21.36132812 C-85.01041789 21.36360111 -83.06770817 21.36430462 -81.125 21.36328125 C-80.22894043 21.372491 -79.33288086 21.38170074 -78.40966797 21.39118958 C-72.57616909 21.34866625 -68.37015964 20.27210387 -63 18 C-59.8828125 17.5234375 -59.8828125 17.5234375 -57.125 17.375 C-53.41946464 17.22420846 -53.41946464 17.22420846 -50 16 C-46.62984385 15.47848039 -43.2527023 15.03841355 -39.87109375 14.59765625 C-38.92363281 14.40042969 -37.97617188 14.20320312 -37 14 C-36.67 13.34 -36.34 12.68 -36 12 C-30.38111581 10.2942673 -24.83811805 9.51353816 -19 9 C-18.67 8.01 -18.34 7.02 -18 6 C-15.36 5.67 -12.72 5.34 -10 5 C-10 4.01 -10 3.02 -10 2 C-6.49223216 0.39644899 -3.85645121 -0.22036864 0 0 Z " fill="#F6BC94" transform="translate(293,571)"/>
<path d="M0 0 C2 2 2 2 2.43359375 4.2734375 C1.82894946 8.07561513 -0.31029187 10.00861412 -2.9375 12.625 C-3.94523301 13.67205516 -4.95039331 14.72159176 -5.953125 15.7734375 C-6.46166016 16.30420898 -6.97019531 16.83498047 -7.49414062 17.38183594 C-11.22441435 21.39030777 -14.58846101 25.72083505 -18 30 C-18 27 -18 27 -15.5 24.0625 C-12.57841567 21.14244939 -12.57841567 21.14244939 -13 17 C-13.66 16.67 -14.32 16.34 -15 16 C-14.67 13.69 -14.34 11.38 -14 9 C-14.33 9.33 -14.66 9.66 -15 10 C-16.35375786 10.05332088 -17.70808292 10.0924754 -19.0625 10.125 C-24.91259864 10.65938401 -28.06725882 13.89580416 -32 18 C-32.66 17.67 -33.32 17.34 -34 17 C-25.12356245 8.55237585 -13.20233961 -1.61004142 0 0 Z " fill="#F8843E" transform="translate(131,258)"/>
<path d="M0 0 C0.33 0 0.66 0 1 0 C1.27433628 15.08849558 1.27433628 15.08849558 -2 20 C-2.45772063 22.73872955 -2.45772063 22.73872955 -2.625 25.6875 C-2.73714844 27.17830078 -2.73714844 27.17830078 -2.8515625 28.69921875 C-2.90054687 29.45847656 -2.94953125 30.21773438 -3 31 C-3.66 31 -4.32 31 -5 31 C-5.02535418 37.33544053 -5.04286866 43.67086797 -5.05493164 50.00634766 C-5.05996052 52.16162607 -5.06678442 54.31690107 -5.07543945 56.47216797 C-5.08756821 59.56999554 -5.09324278 62.66777801 -5.09765625 65.765625 C-5.10281754 66.72929993 -5.10797882 67.69297485 -5.11329651 68.68585205 C-5.11337204 69.58648376 -5.11344757 70.48711548 -5.11352539 71.41503906 C-5.115746 72.20557678 -5.11796661 72.9961145 -5.12025452 73.81060791 C-4.99998095 76.00034683 -4.56635166 77.88796187 -4 80 C-3.93451508 81.58211573 -3.91421619 83.16670081 -3.9375 84.75 C-3.94652344 85.54921875 -3.95554687 86.3484375 -3.96484375 87.171875 C-3.98224609 88.07679688 -3.98224609 88.07679688 -4 89 C-9.32840953 79.41892172 -8.40112127 67.05119757 -8.375 56.375 C-8.37512085 55.61420135 -8.3752417 54.85340271 -8.37536621 54.06954956 C-8.33350304 35.44360296 -6.31713625 17.60853285 0 0 Z " fill="#F5C8A4" transform="translate(34,364)"/>
<path d="M0 0 C0.33 0 0.66 0 1 0 C2.90793318 10.56937895 3.37257314 20.870525 3.37060547 31.58447266 C3.37497157 34.23275488 3.41141138 36.8793549 3.44921875 39.52734375 C3.5231352 51.18664766 2.02360576 61.74499158 -1 73 C-1.33 73 -1.66 73 -2 73 C-1.86142159 69.87463363 -1.71290431 66.74981783 -1.5625 63.625 C-1.52318359 62.73554688 -1.48386719 61.84609375 -1.44335938 60.9296875 C-1.40146484 60.07890625 -1.35957031 59.228125 -1.31640625 58.3515625 C-1.27974854 57.56604004 -1.24309082 56.78051758 -1.20532227 55.97119141 C-1 54 -1 54 0 52 C0.09039906 50.3351936 0.11755257 48.66676579 0.11352539 46.99951172 C0.11344986 45.95858368 0.11337433 44.91765564 0.11329651 43.84518433 C0.10813522 42.71807037 0.10297394 41.59095642 0.09765625 40.4296875 C0.0962413 39.27832306 0.09482635 38.12695862 0.09336853 36.94070435 C0.08775716 33.25211014 0.0752027 29.56357595 0.0625 25.875 C0.05748647 23.37890712 0.05292331 20.8828133 0.04882812 18.38671875 C0.03778403 12.25779191 0.0210348 6.12890024 0 0 Z " fill="#F9CBA8" transform="translate(378,385)"/>
<path d="M0 0 C0.33 0 0.66 0 1 0 C0.98952637 1.14887695 0.97905273 2.29775391 0.96826172 3.48144531 C0.93169968 7.79781909 0.90896955 12.11417957 0.89013672 16.43066406 C0.88016079 18.2887605 0.86657522 20.14684158 0.84912109 22.00488281 C0.3311767 39.41612323 0.3311767 39.41612323 4.6875 56.0625 C6 59 6 59 5 62 C4.65066406 61.28972656 4.30132812 60.57945312 3.94140625 59.84765625 C3.48636719 58.92855469 3.03132812 58.00945312 2.5625 57.0625 C2.11003906 56.14597656 1.65757812 55.22945312 1.19140625 54.28515625 C0.19474606 52.09471096 0.19474606 52.09471096 -1 51 C-1.31923492 48.9427083 -1.51161352 46.88386479 -1.71875 44.8125 C-1.81998043 42.9832467 -1.81998043 42.9832467 -3 42 C-3.04180439 39.57019149 -3.01985329 37.17345146 -2.94921875 34.74609375 C-2.9303511 34.01181656 -2.91148346 33.27753937 -2.89204407 32.52101135 C-2.8500597 30.95981541 -2.8053125 29.39869176 -2.75805664 27.83764648 C-2.68851379 25.47198625 -2.63376801 23.10630042 -2.58007812 20.74023438 C-2.53737014 19.22132825 -2.49377705 17.70244672 -2.44921875 16.18359375 C-2.43453049 15.48431259 -2.41984222 14.78503143 -2.40470886 14.06455994 C-2.23641024 9.13253337 -1.32497028 4.75571474 0 0 Z " fill="#F7CBA8" transform="translate(210,86)"/>
<path d="M0 0 C0.83984375 1.796875 0.83984375 1.796875 1 4 C-0.43359375 6.140625 -0.43359375 6.140625 -2.4375 8.25 C-3.09621094 8.95640625 -3.75492187 9.6628125 -4.43359375 10.390625 C-4.95050781 10.92171875 -5.46742188 11.4528125 -6 12 C-6.66 11.67 -7.32 11.34 -8 11 C-7.67 8.03 -7.34 5.06 -7 2 C-14.92 2.495 -14.92 2.495 -23 3 C-23.33 3.99 -23.66 4.98 -24 6 C-26.64 6 -29.28 6 -32 6 C-25.8999652 -0.1000348 -7.91921498 -3.95960749 0 0 Z " fill="#F3A978" transform="translate(265,19)"/>
<path d="M0 0 C2 2 2 2 2.43359375 4.2734375 C1.82894946 8.07561513 -0.31029187 10.00861412 -2.9375 12.625 C-3.94523301 13.67205516 -4.95039331 14.72159176 -5.953125 15.7734375 C-6.46166016 16.30420898 -6.97019531 16.83498047 -7.49414062 17.38183594 C-11.22441435 21.39030777 -14.58846101 25.72083505 -18 30 C-18 26.2087605 -16.52101948 25.27435992 -14.1015625 22.55078125 C-12.55290637 20.37058095 -12.85916459 18.60545508 -13 16 C-11.5 14.1875 -11.5 14.1875 -10 13 C-9.01 13.33 -8.02 13.66 -7 14 C-7 12.68 -7 11.36 -7 10 C-6.01 10 -5.02 10 -4 10 C-4 8.68 -4 7.36 -4 6 C-3.01 6 -2.02 6 -1 6 C-1 5.01 -1 4.02 -1 3 C-4.63 3 -8.26 3 -12 3 C-7.8455092 0.23033947 -4.9337715 -0.31492158 0 0 Z " fill="#F2B184" transform="translate(131,258)"/>
<path d="M0 0 C0.66 0.33 1.32 0.66 2 1 C0.58829091 2.29708314 -0.82958196 3.58745978 -2.25 4.875 C-3.03890625 5.59429687 -3.8278125 6.31359375 -4.640625 7.0546875 C-7 9 -7 9 -9.10546875 9.98046875 C-11.63705212 11.34282598 -12.56524118 13.00595168 -14.0625 15.4375 C-15.84584676 18.30883019 -17.56580644 20.66073321 -20 23 C-20.45375 23.70125 -20.9075 24.4025 -21.375 25.125 C-23.43661429 27.50378572 -24.93425649 27.66856827 -28 28 C-28 28.66 -28 29.32 -28 30 C-28.99 30.33 -29.98 30.66 -31 31 C-30.34 29.35 -29.68 27.7 -29 26 C-28.34 26 -27.68 26 -27 26 C-26.76796875 25.45214844 -26.5359375 24.90429688 -26.296875 24.33984375 C-21.4041876 15.51237461 -12.65190664 8.00899858 -4 3 C-2.65368175 2.01755155 -1.31558703 1.02323436 0 0 Z " fill="#F09D66" transform="translate(195,44)"/>
<path d="M0 0 C0.33 1.32 0.66 2.64 1 4 C1.99 4 2.98 4 4 4 C4.06058594 4.63808594 4.12117187 5.27617187 4.18359375 5.93359375 C4.26738281 6.75988281 4.35117188 7.58617187 4.4375 8.4375 C4.51871094 9.26121094 4.59992188 10.08492188 4.68359375 10.93359375 C4.78930815 12.98662025 4.78930815 12.98662025 6 14 C6.1136721 16.87523537 6.16419376 19.72549712 6.16796875 22.6015625 C6.17129715 23.47138763 6.17462555 24.34121277 6.17805481 25.23739624 C6.18313051 27.08517934 6.18546294 28.93297165 6.18530273 30.78076172 C6.18747472 33.59227967 6.20558305 36.40339607 6.22460938 39.21484375 C6.22754617 41.01041533 6.22952905 42.80598877 6.23046875 44.6015625 C6.23765427 45.43724762 6.24483978 46.27293274 6.25224304 47.13394165 C6.22777093 53.47402041 5.60062795 58.59905808 2 64 C1.01 64 0.02 64 -1 64 C-0.54287762 62.45797384 -0.08423653 60.91639786 0.375 59.375 C0.63023437 58.51648438 0.88546875 57.65796875 1.1484375 56.7734375 C1.72135704 54.90750688 2.35085989 53.0581221 3.03222656 51.22900391 C4.72292806 45.58792972 4.3809059 39.84979699 4.375 34 C4.37628906 32.69740234 4.37757813 31.39480469 4.37890625 30.05273438 C4.29010466 22.00004498 3.74321781 15.10015812 0.875 7.53125 C-0.04840851 4.8599611 -0.1625851 2.80459297 0 0 Z " fill="#F9CCA7" transform="translate(165,268)"/>
<path d="M0 0 C0.33 0 0.66 0 1 0 C1.10957031 0.59167969 1.21914063 1.18335938 1.33203125 1.79296875 C2.3315989 6.85862027 2.3315989 6.85862027 4.5 11.5 C6.37224784 14.62041307 6.85418038 17.55166619 7.47265625 21.109375 C7.64667969 21.73328125 7.82070313 22.3571875 8 23 C8.66 23.33 9.32 23.66 10 24 C10.8515625 26.28515625 10.8515625 26.28515625 11.625 29.0625 C11.88539062 29.98160156 12.14578125 30.90070313 12.4140625 31.84765625 C12.60742188 32.55792969 12.80078125 33.26820313 13 34 C13.66 34 14.32 34 15 34 C15.19335938 34.80824219 15.38671875 35.61648438 15.5859375 36.44921875 C15.97652344 38.05216797 15.97652344 38.05216797 16.375 39.6875 C16.63023438 40.74324219 16.88546875 41.79898438 17.1484375 42.88671875 C17.91905489 45.70406766 18.85498543 48.31668325 20 51 C11.41097377 43.09293508 8.31913384 30.74503815 4.68164062 19.96533203 C3.73631517 17.23973393 2.67460967 14.56185293 1.625 11.875 C0.07878296 7.68999107 -0.39432749 4.43618424 0 0 Z " fill="#F7C19A" transform="translate(30,453)"/>
<path d="M0 0 C-1.32 0.33 -2.64 0.66 -4 1 C-4 1.66 -4 2.32 -4 3 C-4.66 3 -5.32 3 -6 3 C-6 3.66 -6 4.32 -6 5 C-8.31 5.66 -10.62 6.32 -13 7 C-12.01 7.66 -11.02 8.32 -10 9 C-10 9.66 -10 10.32 -10 11 C-13.1702416 11.66353894 -15.55253379 12.09152718 -18.75 11.4375 C-19.4925 11.293125 -20.235 11.14875 -21 11 C-21.66 11.66 -22.32 12.32 -23 13 C-26.125 13.125 -26.125 13.125 -29 13 C-26.77339497 10.55834528 -24.57984709 9.0789931 -21.65625 7.5546875 C-20.82222656 7.11769531 -19.98820313 6.68070313 -19.12890625 6.23046875 C-17.82759766 5.55951172 -17.82759766 5.55951172 -16.5 4.875 C-15.63246094 4.41996094 -14.76492187 3.96492188 -13.87109375 3.49609375 C-4.48608568 -1.39223349 -4.48608568 -1.39223349 0 0 Z " fill="#F48641" transform="translate(234,26)"/>
<path d="M0 0 C0.33 0 0.66 0 1 0 C1.00257812 1.31613281 1.00515625 2.63226563 1.0078125 3.98828125 C1.18625734 14.58810643 1.94370189 21.99889639 8 31 C8 31.66 8 32.32 8 33 C8.66 33 9.32 33 10 33 C11.5078125 34.75 11.5078125 34.75 13.125 37 C13.66382812 37.7425 14.20265625 38.485 14.7578125 39.25 C15.16773437 39.8275 15.57765625 40.405 16 41 C13.10385907 39.6262658 11.25606768 38.25606768 9 36 C8.01 35.67 7.02 35.34 6 35 C5.3125 32.9375 5.3125 32.9375 5 31 C4.01 31 3.02 31 2 31 C-1.43913779 25.03882783 -1.15749379 18.48997302 -1.125 11.8125 C-1.12886719 11.00619141 -1.13273437 10.19988281 -1.13671875 9.36914062 C-1.13542969 8.59376953 -1.13414063 7.81839844 -1.1328125 7.01953125 C-1.13168457 6.31932861 -1.13055664 5.61912598 -1.12939453 4.89770508 C-1 3 -1 3 0 0 Z " fill="#F5BF99" transform="translate(105,299)"/>
<path d="M0 0 C1.9375 0.8125 1.9375 0.8125 4 2 C4.33 2.99 4.66 3.98 5 5 C6.3281968 5.67684229 7.6623566 6.34202406 9 7 C10.76171875 8.78515625 10.76171875 8.78515625 12.6875 11.0625 C19.71675601 19.09762598 27.41237685 26.49730806 35 34 C34.505 34.99 34.505 34.99 34 36 C33.40985107 35.39937744 32.81970215 34.79875488 32.21166992 34.17993164 C30.01843575 31.95260016 27.82072205 29.72981526 25.61987305 27.51000977 C24.66850843 26.54859153 23.71894709 25.58538536 22.77124023 24.62036133 C21.40824879 23.2330945 20.03819589 21.85277672 18.66796875 20.47265625 C17.84578857 19.64000244 17.0236084 18.80734863 16.17651367 17.94946289 C14.06940381 15.80236105 14.06940381 15.80236105 11 15 C11 14.34 11 13.68 11 13 C10.34 13 9.68 13 9 13 C8.34 11.35 7.68 9.7 7 8 C4.69 7.67 2.38 7.34 0 7 C0 4.69 0 2.38 0 0 Z " fill="#FAD5B5" transform="translate(266,216)"/>
<path d="M0 0 C5.55555556 -0.37037037 5.55555556 -0.37037037 7.5 1.25 C7.995 1.8275 8.49 2.405 9 3 C13.25302991 6.18977243 16.91278511 7.59663037 22 9 C24.72106743 10.23380562 27.36609009 11.59068716 30 13 C30 13.66 30 14.32 30 15 C31.65 15 33.3 15 35 15 C35 15.66 35 16.32 35 17 C35.66 17.33 36.32 17.66 37 18 C31.72012975 17.02224625 27.53663068 15.98462545 23 13 C21.29781286 12.26131501 19.59497695 11.52384859 17.8828125 10.80859375 C11.64291248 8.12880266 5.53159184 4.95744203 0 1 C0 0.67 0 0.34 0 0 Z " fill="#F4BF9A" transform="translate(107,567)"/>
<path d="M0 0 C0 4.35233457 -2.28967166 6.00584595 -5.1171875 9.13671875 C-7.21965331 11.21737474 -9.40775443 12.59278098 -12 14 C-12.99 15.485 -12.99 15.485 -14 17 C-16.85967257 17.30479269 -19.45621029 17.41795173 -22.3125 17.375 C-23.07240234 17.38660156 -23.83230469 17.39820313 -24.61523438 17.41015625 C-29.18618715 17.38632852 -32.32065263 17.01104276 -36 14 C-36 13.34 -36 12.68 -36 12 C-36.99 11.67 -37.98 11.34 -39 11 C-38.34 10.67 -37.68 10.34 -37 10 C-35.22265625 10.77734375 -35.22265625 10.77734375 -33.0625 11.9375 C-26.94814737 14.74440988 -21.02910505 15.35388344 -14.58203125 13.1875 C-8.4008162 10.12348979 -4.25653837 5.32357251 0 0 Z " fill="#F6BD96" transform="translate(163,332)"/>
<path d="M0 0 C6.88057547 7.85717328 9.72670844 18.79671612 12.875 28.625 C13.09019287 29.28733643 13.30538574 29.94967285 13.52709961 30.63208008 C14.62668861 34.18561324 15.24237659 37.27880654 15 41 C13.42445965 38.11371599 12.53723627 35.46657616 11.875 32.25 C11.62363281 31.05117188 11.62363281 31.05117188 11.3671875 29.828125 C11.24601562 29.22484375 11.12484375 28.6215625 11 28 C10.34 28 9.68 28 9 28 C6.85714286 20.57142857 6.85714286 20.57142857 6 17 C5.34 17 4.68 17 4 17 C3.67 14.03 3.34 11.06 3 8 C2.34 8 1.68 8 1 8 C0.67 5.36 0.34 2.72 0 0 Z " fill="#F6C098" transform="translate(361,333)"/>
<path d="M0 0 C0.33 0 0.66 0 1 0 C1.27433628 15.08849558 1.27433628 15.08849558 -2 20 C-2.45772063 22.73872955 -2.45772063 22.73872955 -2.625 25.6875 C-2.69976563 26.68136719 -2.77453125 27.67523438 -2.8515625 28.69921875 C-2.90054687 29.45847656 -2.94953125 30.21773438 -3 31 C-3.66 31 -4.32 31 -5 31 C-5 32.65 -5 34.3 -5 36 C-5.33 36 -5.66 36 -6 36 C-6.62864642 23.49692123 -4.31612752 11.71520327 0 0 Z " fill="#F3AE7E" transform="translate(34,364)"/>
<path d="M0 0 C-6.80994879 7.5544448 -20.32007833 11.76617192 -30 14 C-33.4375 14.125 -33.4375 14.125 -36 14 C-36 13.34 -36 12.68 -36 12 C-30.3297637 10.45357192 -24.852795 9.51482919 -19 9 C-18.67 8.01 -18.34 7.02 -18 6 C-15.36 5.67 -12.72 5.34 -10 5 C-10 4.01 -10 3.02 -10 2 C-6.49223216 0.39644899 -3.85645121 -0.22036864 0 0 Z " fill="#F2B384" transform="translate(293,571)"/>
<path d="M0 0 C0.66 0.33 1.32 0.66 2 1 C0.74896484 2.18142578 0.74896484 2.18142578 -0.52734375 3.38671875 C-8.12675984 10.69650398 -14.35111802 18.08148091 -20 27 C-21 25 -21 25 -20.4765625 22.90625 C-20.19554687 22.1121875 -19.91453125 21.318125 -19.625 20.5 C-19.34914062 19.7059375 -19.07328125 18.911875 -18.7890625 18.09375 C-18 16 -18 16 -17 14 C-15.68 14 -14.36 14 -13 14 C-12.9175 13.38125 -12.835 12.7625 -12.75 12.125 C-12 10 -12 10 -10.21875 9.125 C-7.52782757 7.76058863 -5.8435824 6.03836848 -3.75 3.875 C-2.69039062 2.78832031 -2.69039062 2.78832031 -1.609375 1.6796875 C-1.07828125 1.12539063 -0.5471875 0.57109375 0 0 Z " fill="#F6C49A" transform="translate(238,45)"/>
<path d="M0 0 C5.28 0.66 10.56 1.32 16 2 C16 2.66 16 3.32 16 4 C16.55945313 4.03738281 17.11890625 4.07476563 17.6953125 4.11328125 C25.28516771 4.73560057 32.58530596 6.30124445 40 8 C40 8.33 40 8.66 40 9 C32.8931187 9.31950742 26.38514889 8.11633292 19.4375 6.6875 C17.79104492 6.36749023 17.79104492 6.36749023 16.11132812 6.04101562 C10.39200667 4.88611949 5.2473072 3.56719047 0 1 C0 0.67 0 0.34 0 0 Z " fill="#FBD4B5" transform="translate(144,585)"/>
<path d="M0 0 C2.31 0 4.62 0 7 0 C7 0.99 7 1.98 7 3 C6.01 3 5.02 3 4 3 C4 4.32 4 5.64 4 7 C3.01 7 2.02 7 1 7 C1 8.32 1 9.64 1 11 C-1.86724686 10.42655063 -2.8614515 10.1385485 -5 8 C-4.54625 7.4225 -4.0925 6.845 -3.625 6.25 C-2.15886484 4.2199667 -1.05142216 2.26460157 0 0 Z " fill="#FB8336" transform="translate(123,261)"/>
<path d="M0 0 C3.27679215 1.09226405 3.92308502 1.79929154 6.0625 4.375 C9.11986001 7.98347211 12.24804316 11.50875361 15.4375 15 C16.30246094 15.94875 17.16742188 16.8975 18.05859375 17.875 C18.69925781 18.57625 19.33992188 19.2775 20 20 C19.67 20.66 19.34 21.32 19 22 C16.74910772 19.91762372 14.49926118 17.83413684 12.25 15.75 C11.61578125 15.16347656 10.9815625 14.57695312 10.328125 13.97265625 C8.54651263 12.32095312 6.7718826 10.6621293 5 9 C4.2059375 8.2575 3.411875 7.515 2.59375 6.75 C0.61644452 4.57884105 0.31987143 2.8788429 0 0 Z " fill="#F6BD93" transform="translate(301,252)"/>
<path d="M0 0 C0.33 0 0.66 0 1 0 C1.66 2.97 2.32 5.94 3 9 C3.33 9 3.66 9 4 9 C5.45184478 13.53701494 6.23509196 17.18061476 6 22 C6.66 22 7.32 22 8 22 C8.5345256 23.24420647 9.05208611 24.49570936 9.5625 25.75 C9.85253906 26.44609375 10.14257812 27.1421875 10.44140625 27.859375 C11.07831803 30.30012784 10.80248831 31.6403655 10 34 C7.75810223 31.75810223 7.28569865 30.33442367 6.30859375 27.3515625 C6.00373047 26.42859375 5.69886719 25.505625 5.38476562 24.5546875 C5.07216797 23.58789062 4.75957031 22.62109375 4.4375 21.625 C4.12103516 20.6659375 3.80457031 19.706875 3.47851562 18.71875 C1.33353586 12.17906646 -0.13364076 6.94931939 0 0 Z " fill="#F8CBA8" transform="translate(140,194)"/>
<path d="M0 0 C1 3 1 3 0.13549805 4.97705078 C-0.31784912 5.70907715 -0.77119629 6.44110352 -1.23828125 7.1953125 C-1.97401367 8.39220703 -1.97401367 8.39220703 -2.72460938 9.61328125 C-3.24861328 10.44214844 -3.77261719 11.27101563 -4.3125 12.125 C-4.82490234 12.96160156 -5.33730469 13.79820312 -5.86523438 14.66015625 C-9.7182356 20.8591178 -9.7182356 20.8591178 -12 22 C-12.125 16.25 -12.125 16.25 -11 14 C-10.01 14 -9.02 14 -8 14 C-7.7834375 12.576875 -7.7834375 12.576875 -7.5625 11.125 C-7 8 -7 8 -6 6 C-4.68 6 -3.36 6 -2 6 C-1.34 4.02 -0.68 2.04 0 0 Z " fill="#F8C097" transform="translate(360,501)"/>
<path d="M0 0 C3.82669043 3.42388092 5.72278474 6.00724943 7 11 C7.66 10.34 8.32 9.68 9 9 C9.33 9.66 9.66 10.32 10 11 C10.99 11 11.98 11 13 11 C13.33 14.96 13.66 18.92 14 23 C8.15490817 17.15490817 3.44285609 10.55963295 0 3 C0 2.01 0 1.02 0 0 Z " fill="#F8B788" transform="translate(50,504)"/>
<path d="M0 0 C3.79698489 2.85279682 6.80208612 5.89309005 9.8125 9.5625 C10.60269531 10.51253906 11.39289063 11.46257812 12.20703125 12.44140625 C14 15 14 15 14 18 C13.34 17.34 12.68 16.68 12 16 C10.01643517 15.28591666 8.01684563 14.61382258 6 14 C5.67 12.02 5.34 10.04 5 8 C3.35 7.67 1.7 7.34 0 7 C0.2784375 6.1028125 0.2784375 6.1028125 0.5625 5.1875 C1.22093687 2.83591238 1.22093687 2.83591238 0 0 Z " fill="#F8C29D" transform="translate(236,182)"/>
<path d="M0 0 C0 3 0 3 -1.46875 4.69140625 C-2.47421875 5.61759766 -2.47421875 5.61759766 -3.5 6.5625 C-8.14762804 11.01924332 -12.07532792 15.90627666 -16 21 C-16 17.2087605 -14.52101948 16.27435992 -12.1015625 13.55078125 C-10.55290637 11.37058095 -10.85916459 9.60545508 -11 7 C-8.84418954 3.82301617 -6.60162107 3.72032421 -3 3 C-1.20614008 1.5420814 -1.20614008 1.5420814 0 0 Z " fill="#FAC8A1" transform="translate(129,267)"/>
<path d="M0 0 C2 2 2 2 2 5 C2.99 5 3.98 5 5 5 C6.93108021 10.24150343 7.9685466 15.5306967 9 21 C9.33154966 22.66702241 9.66438231 24.33379183 10 26 C7.28099144 22.75780029 5.89661638 19.51903815 4.4375 15.5625 C4.02371094 14.45003906 3.60992187 13.33757812 3.18359375 12.19140625 C2.79300781 11.13824219 2.40242187 10.08507812 2 9 C1.61972656 8.12214844 1.23945313 7.24429688 0.84765625 6.33984375 C0 4 0 4 0 0 Z " fill="#F7C49F" transform="translate(150,228)"/>
<path d="M0 0 C0.33 0 0.66 0 1 0 C1.49868926 6.35828803 1.16187018 9.02887729 -3 14 C-4.53426501 17.93932908 -5.78615843 21.95170924 -7 26 C-8.05123462 22.80273793 -7.9463602 20.97813942 -6.85546875 17.8125 C-6.59056641 17.03132813 -6.32566406 16.25015625 -6.05273438 15.4453125 C-5.76720703 14.63835937 -5.48167969 13.83140625 -5.1875 13 C-4.91357422 12.19304687 -4.63964844 11.38609375 -4.35742188 10.5546875 C-3.10000901 6.90004868 -1.78521292 3.43440044 0 0 Z " fill="#F8C8A5" transform="translate(148,99)"/>
<path d="M0 0 C0.33 1.32 0.66 2.64 1 4 C1.78375 3.525625 2.5675 3.05125 3.375 2.5625 C4.88948678 1.66101977 6.4235897 0.78820515 8 0 C6.3383196 4.12417063 3.37661982 7.06554039 0.375 10.25 C-0.140625 10.80429687 -0.65625 11.35859375 -1.1875 11.9296875 C-2.45425035 13.2902712 -3.72657815 14.64565837 -5 16 C-5.66 15.67 -6.32 15.34 -7 15 C-6.566875 14.62488281 -6.13375 14.24976563 -5.6875 13.86328125 C-2.01436376 10.64255667 -2.01436376 10.64255667 -0.625 6.125 C-0.74875 5.42375 -0.8725 4.7225 -1 4 C-1.66 3.67 -2.32 3.34 -3 3 C-2.01 2.01 -1.02 1.02 0 0 Z " fill="#F9BE91" transform="translate(333,532)"/>
<path d="M0 0 C0.66 0.33 1.32 0.66 2 1 C0.29592618 2.27653929 -1.41347351 3.5459704 -3.125 4.8125 C-4.07632812 5.52019531 -5.02765625 6.22789062 -6.0078125 6.95703125 C-8.93153579 8.95325485 -11.74332171 10.61152951 -15 12 C-15.66 11.67 -16.32 11.34 -17 11 C-16.67 10.34 -16.34 9.68 -16 9 C-14.68 9 -13.36 9 -12 9 C-12.33 8.01 -12.66 7.02 -13 6 C-12.67 5.01 -12.34 4.02 -12 3 C-10.7625 3.061875 -9.525 3.12375 -8.25 3.1875 C-5.21788698 3.20362826 -4.17751704 3.10651023 -1.5 1.5 C-1.005 1.005 -0.51 0.51 0 0 Z " fill="#F8BE95" transform="translate(310,559)"/>
<path d="M0 0 C0.33 0 0.66 0 1 0 C1.23538321 6.70842135 0.84160316 12.23759526 -3 18 C-3.99 18 -4.98 18 -6 18 C-4.23536928 11.89262558 -2.30442525 5.92566493 0 0 Z " fill="#F3B084" transform="translate(170,314)"/>
<path d="M0 0 C0.66 0.33 1.32 0.66 2 1 C-6.47239463 8.91525303 -6.47239463 8.91525303 -10.625 11.0625 C-14.79779669 13.45799439 -17.75546127 16.48919214 -21 20 C-21 17 -21 17 -18.55078125 14.40625 C-17.47902448 13.42902085 -16.39920392 12.46058002 -15.3125 11.5 C-14.78205078 11.01402344 -14.25160156 10.52804688 -13.70507812 10.02734375 C-10.64370266 7.27022769 -7.60977696 5.02423257 -4 3 C-2.65368175 2.01755155 -1.31558703 1.02323436 0 0 Z " fill="#FBDABC" transform="translate(195,44)"/>
<path d="M0 0 C-1.32 0.33 -2.64 0.66 -4 1 C-4 1.66 -4 2.32 -4 3 C-4.66 3 -5.32 3 -6 3 C-6 3.66 -6 4.32 -6 5 C-7.27875 5.12375 -8.5575 5.2475 -9.875 5.375 C-13.34790936 5.69042399 -13.34790936 5.69042399 -16 8 C-18.125 7.625 -18.125 7.625 -20 7 C-17.42362412 5.63092584 -14.84031896 4.27971545 -12.25 2.9375 C-11.52039063 2.54755859 -10.79078125 2.15761719 -10.0390625 1.75585938 C-9.33007812 1.39169922 -8.62109375 1.02753906 -7.890625 0.65234375 C-7.24125977 0.31195068 -6.59189453 -0.02844238 -5.92285156 -0.37915039 C-3.58008982 -1.13558044 -2.29543427 -0.78821819 0 0 Z " fill="#F5B180" transform="translate(234,26)"/>
<path d="M0 0 C-0.61875 0.0825 -1.2375 0.165 -1.875 0.25 C-2.57625 0.4975 -3.2775 0.745 -4 1 C-4.268125 1.61875 -4.53625 2.2375 -4.8125 2.875 C-6.35950327 5.64332164 -8.17379017 5.99379399 -11.046875 7.07421875 C-14.52622072 8.72342862 -17.2139315 11.38329737 -20 14 C-20.66 13.67 -21.32 13.34 -22 13 C-6.17669173 -2.05889724 -6.17669173 -2.05889724 0 0 Z " fill="#FCE0C8" transform="translate(119,262)"/>
<path d="M0 0 C0.33 0 0.66 0 1 0 C1.32693436 3.59627792 1.47194463 5.37635888 -0.75 8.3125 C-2.93611873 9.95208905 -4.32561938 10.61794563 -7 11 C-7 11.66 -7 12.32 -7 13 C-8.32 12.67 -9.64 12.34 -11 12 C-10.45730469 11.55269531 -9.91460937 11.10539062 -9.35546875 10.64453125 C-5.47703716 7.36708185 -2.35999319 4.58116324 0 0 Z " fill="#EF8B4D" transform="translate(164,332)"/>
<path d="M0 0 C0.66 0.33 1.32 0.66 2 1 C-1.61503398 5.67903334 -4.53799435 8.50647568 -10 11 C-12.31418291 13.06167261 -12.31418291 13.06167261 -14 15 C-14.66 14.67 -15.32 14.34 -16 14 C-14.2725597 12.4147483 -12.54312043 10.83177374 -10.8125 9.25 C-9.36810547 7.92742187 -9.36810547 7.92742187 -7.89453125 6.578125 C-5.32582261 4.29020637 -2.70839628 2.11918393 0 0 Z " fill="#E98C53" transform="translate(107,268)"/>
<path d="M0 0 C5.10477706 4.35407455 8.36483779 9.84798598 11 16 C10.67 16.66 10.34 17.32 10 18 C6.75267068 16.37633534 6.29844864 13.24612161 5 10 C4.34 10 3.68 10 3 10 C2.01 6.7 1.02 3.4 0 0 Z " fill="#F8C4A1" transform="translate(346,307)"/>
<path d="M0 0 C0.66 0.33 1.32 0.66 2 1 C0.71372289 2.17260611 -0.57919783 3.3379283 -1.875 4.5 C-2.59429687 5.1496875 -3.31359375 5.799375 -4.0546875 6.46875 C-6 8 -6 8 -8 8 C-8 8.66 -8 9.32 -8 10 C-9.32 10.33 -10.64 10.66 -12 11 C-12.0625 8.75 -12.0625 8.75 -11 6 C-8.77207083 4.71632987 -6.53336448 3.80150988 -4.12890625 2.89453125 C-1.83754437 2.0895315 -1.83754437 2.0895315 0 0 Z " fill="#F6C6A0" transform="translate(324,548)"/>
<path d="M0 0 C1 2 1 2 0.546875 3.91015625 C0.28390625 4.62042969 0.0209375 5.33070313 -0.25 6.0625 C-0.50265625 6.77535156 -0.7553125 7.48820312 -1.015625 8.22265625 C-2 10 -2 10 -5 11 C-6.70855022 14.00007271 -6.70855022 14.00007271 -8 17 C-8.33 16.01 -8.66 15.02 -9 14 C-7.78799652 11.67552955 -6.551314 9.55978866 -5.125 7.375 C-4.74730469 6.776875 -4.36960937 6.17875 -3.98046875 5.5625 C-1.21928377 1.21928377 -1.21928377 1.21928377 0 0 Z " fill="#F6C6A4" transform="translate(54,322)"/>
<path d="M0 0 C2.14909962 2.76854598 4.01778828 5.57834526 5.75 8.625 C6.19859375 9.40101563 6.6471875 10.17703125 7.109375 10.9765625 C7.40328125 11.64429688 7.6971875 12.31203125 8 13 C7.67 13.66 7.34 14.32 7 15 C4.43087971 14.01269344 3.24027949 13.46442081 1.953125 10.9765625 C1.72109375 10.20054687 1.4890625 9.42453125 1.25 8.625 C1.00765625 7.85414063 0.7653125 7.08328125 0.515625 6.2890625 C0 4 0 4 0 0 Z " fill="#F5BC95" transform="translate(218,153)"/>
<path d="M0 0 C-2.37094293 2.65171248 -4.83568087 4.1490052 -8 5.75 C-9.299375 6.42289063 -9.299375 6.42289063 -10.625 7.109375 C-13 8 -13 8 -16 7 C-13 5 -13 5 -10 5 C-10 4.01 -10 3.02 -10 2 C-6.49223216 0.39644899 -3.85645121 -0.22036864 0 0 Z " fill="#F7C5A4" transform="translate(293,571)"/>
<path d="M0 0 C0.66 0 1.32 0 2 0 C3.5078125 1.96875 3.5078125 1.96875 5.125 4.5 C5.66382813 5.3353125 6.20265625 6.170625 6.7578125 7.03125 C7.16773438 7.6809375 7.57765625 8.330625 8 9 C7.67 9.66 7.34 10.32 7 11 C4.69 10.34 2.38 9.68 0 9 C0 6.03 0 3.06 0 0 Z " fill="#F6B688" transform="translate(228,171)"/>
<path d="M0 0 C-6.93 5.94 -6.93 5.94 -14 12 C-14.66 11.67 -15.32 11.34 -16 11 C-15.43410156 10.54109375 -14.86820313 10.0821875 -14.28515625 9.609375 C-13.18494141 8.68898438 -13.18494141 8.68898438 -12.0625 7.75 C-11.33160156 7.14671875 -10.60070312 6.5434375 -9.84765625 5.921875 C-7.89673666 3.89258866 -7.38268221 2.745593 -7 0 C-2.25 -1.125 -2.25 -1.125 0 0 Z " fill="#FEE2CC" transform="translate(256,33)"/>
<path d="M0 0 C0.33 0 0.66 0 1 0 C0.5003731 7.49440349 -1.43764478 13.95650263 -4 21 C-4.33 21 -4.66 21 -5 21 C-5 18.03 -5 15.06 -5 12 C-4.34 12 -3.68 12 -3 12 C-2.01 8.04 -1.02 4.08 0 0 Z " fill="#F9CCAC" transform="translate(375,459)"/>
<path d="M0 0 C3.99926986 2.97088618 6.92118304 6.12948725 10 10 C9.67 10.66 9.34 11.32 9 12 C8.34 11.34 7.68 10.68 7 10 C6.175 9.79375 5.35 9.5875 4.5 9.375 C2 8 2 8 1.23046875 6.09375 C0.73788731 4.08089923 0.36200324 2.04038192 0 0 Z " fill="#F7BE92" transform="translate(321,274)"/>
<path d="M0 0 C1.7074998 1.28062485 3.37373596 2.61767557 5 4 C5 4.66 5 5.32 5 6 C6.32 6.66 7.64 7.32 9 8 C9 8.99 9 9.98 9 11 C8.34 10.34 7.68 9.68 7 9 C5.01643517 8.28591666 3.01684563 7.61382258 1 7 C0.67 4.69 0.34 2.38 0 0 Z " fill="#F7BD91" transform="translate(256,205)"/>
<path d="M0 0 C5.28 0.66 10.56 1.32 16 2 C16 2.66 16 3.32 16 4 C9.80112515 4.37952295 5.5522888 3.8352113 0 1 C0 0.67 0 0.34 0 0 Z " fill="#F4C09A" transform="translate(144,585)"/>
<path d="M0 0 C7.23044397 1.0845666 7.23044397 1.0845666 9.421875 3.69140625 C10.5 5.625 10.5 5.625 12 9 C8.98472262 7.59422879 6.4052059 5.93873852 3.75 3.9375 C3.04359375 3.41027344 2.3371875 2.88304687 1.609375 2.33984375 C1.07828125 1.89769531 0.5471875 1.45554687 0 1 C0 0.67 0 0.34 0 0 Z " fill="#F7C097" transform="translate(95,558)"/>
<path d="M0 0 C5.29012124 4.40843437 10.18808428 9.07559794 15 14 C10.39219149 14 8.20282173 11.09769629 5 8 C0 2.6882793 0 2.6882793 0 0 Z " fill="#FDDEC1" transform="translate(70,534)"/>
<path d="M0 0 C1.2989839 0.90626784 2.58893167 1.82549537 3.875 2.75 C4.59429687 3.26046875 5.31359375 3.7709375 6.0546875 4.296875 C8.08570565 6.07503547 8.97855012 7.52701607 10 10 C6.83714265 8.91376616 3.8453913 7.77165873 1 6 C-0.0625 2.75 -0.0625 2.75 0 0 Z " fill="#F4A670" transform="translate(241,190)"/>
<path d="M0 0 C1 2 1 2 0.546875 3.98828125 C-0.93213289 8.30205426 -2.42107613 12.19301715 -5 16 C-6.32095328 12.03714015 -5.27105135 10.64909563 -3.625 6.875 C-3.16351563 5.79992187 -2.70203125 4.72484375 -2.2265625 3.6171875 C-1 1 -1 1 0 0 Z " fill="#F7CDAC" transform="translate(43,341)"/>
<path d="M0 0 C2.99324263 1.0975223 3.84610901 1.67682892 5.25 4.625 C5.4975 5.40875 5.745 6.1925 6 7 C4.125 7.625 4.125 7.625 2 8 C0 6 0 6 -0.125 2.875 C-0.08375 1.92625 -0.0425 0.9775 0 0 Z " fill="#F4AB7A" transform="translate(266,216)"/>
<path d="M0 0 C0.66 0 1.32 0 2 0 C2.5345256 1.24420647 3.05208611 2.49570936 3.5625 3.75 C3.85253906 4.44609375 4.14257812 5.1421875 4.44140625 5.859375 C5.07831803 8.30012784 4.80248831 9.6403655 4 12 C1.07034088 9.07034088 0.05866431 6.319947 -0.125 2.1875 C-0.08375 1.465625 -0.0425 0.74375 0 0 Z " fill="#F1B488" transform="translate(146,216)"/>
<path d="M0 0 C-0.66 0.66 -1.32 1.32 -2 2 C-3.32 2 -4.64 2 -6 2 C-6.33 2.99 -6.66 3.98 -7 5 C-9.64 5 -12.28 5 -15 5 C-11.11932678 1.11932678 -5.4348024 -0.50951273 0 0 Z " fill="#F7C6A4" transform="translate(248,20)"/>
<path d="M0 0 C1 3 1 3 -0.1875 5.4375 C-1.94674597 7.92470982 -3.77971609 9.92296022 -6 12 C-6.66 12.66 -7.32 13.32 -8 14 C-7.125 8.25 -7.125 8.25 -6 6 C-4.68 6 -3.36 6 -2 6 C-1.34 4.02 -0.68 2.04 0 0 Z " fill="#F3AE80" transform="translate(360,501)"/>
<path d="M0 0 C2.72574271 0.37330824 3.80822085 0.79194601 5.703125 2.84765625 C6.21359375 3.57855469 6.7240625 4.30945313 7.25 5.0625 C8.03117187 6.16271484 8.03117187 6.16271484 8.828125 7.28515625 C9.21484375 7.85105469 9.6015625 8.41695312 10 9 C6.06048404 7.15014033 3.21678125 4.92434659 0 2 C0 1.34 0 0.68 0 0 Z " fill="#F6CEAB" transform="translate(85,549)"/>
<path d="M0 0 C0.33 0 0.66 0 1 0 C1 3.3 1 6.6 1 10 C0.34 10 -0.32 10 -1 10 C-1 11.98 -1 13.96 -1 16 C-1.33 16 -1.66 16 -2 16 C-2.2358396 10.22192976 -1.86783046 5.48675196 0 0 Z " fill="#EE9155" transform="translate(142,118)"/>
<path d="M0 0 C-4.75 3 -4.75 3 -7 3 C-7 3.66 -7 4.32 -7 5 C-7.99 5.33 -8.98 5.66 -10 6 C-8.54794521 1.40182648 -8.54794521 1.40182648 -6.125 -0.375 C-3.6665651 -1.09806909 -2.38500154 -0.85178626 0 0 Z " fill="#F7AC7B" transform="translate(174,69)"/>
<path d="M0 0 C0.33 0.66 0.66 1.32 1 2 C0.26821134 4.07196631 -0.55899003 6.1108552 -1.4375 8.125 C-1.91058594 9.22070312 -2.38367188 10.31640625 -2.87109375 11.4453125 C-3.24363281 12.28835937 -3.61617187 13.13140625 -4 14 C-4.33 14 -4.66 14 -5 14 C-5.74737188 8.02102497 -3.3231898 4.67620279 0 0 Z " fill="#FBD5B7" transform="translate(216,72)"/>
<path d="M0 0 C0.66 0.33 1.32 0.66 2 1 C0.875 3 0.875 3 -1 5 C-4.1875 5.25 -4.1875 5.25 -7 5 C-4.88437775 2.67281553 -2.94982021 1.14186589 0 0 Z " fill="#F5BE94" transform="translate(212,34)"/>
<path d="M0 0 C3.2910841 3.60957611 4.54663921 6.12637153 5 11 C4.67 10.01 4.34 9.02 4 8 C3.01 8 2.02 8 1 8 C0.67 5.36 0.34 2.72 0 0 Z " fill="#F9C39E" transform="translate(361,333)"/>
<path d="M0 0 C-0.61875 0.0825 -1.2375 0.165 -1.875 0.25 C-4.18346804 0.78810733 -4.18346804 0.78810733 -5 3 C-6 5 -6 5 -8.125 5.75 C-9.053125 5.87375 -9.053125 5.87375 -10 6 C-8.20404732 1.26521567 -5.07984355 -1.69328118 0 0 Z " fill="#F6C49E" transform="translate(119,262)"/>
<path d="M0 0 C-0.33 1.32 -0.66 2.64 -1 4 C-3.31 4.33 -5.62 4.66 -8 5 C-3.16129032 0 -3.16129032 0 0 0 Z " fill="#F6BF9C" transform="translate(205,39)"/>
<path d="M0 0 C1.32 0 2.64 0 4 0 C5.8125 1.8125 5.8125 1.8125 7 4 C6.67 4.99 6.34 5.98 6 7 C4.02 4.69 2.04 2.38 0 0 Z " fill="#EE8648" transform="translate(73,536)"/>
<path d="M0 0 C-0.33 1.32 -0.66 2.64 -1 4 C-3.50357861 3.1654738 -5.66785852 2.20628008 -8 1 C-4.93251126 -0.86240388 -3.40254489 -1.2151946 0 0 Z " fill="#F28B49" transform="translate(123,262)"/>
<path d="M0 0 C2.4375 0.6875 2.4375 0.6875 5 2 C5.8125 4.625 5.8125 4.625 6 7 C1.125 3.375 1.125 3.375 0 0 Z " fill="#F5BF97" transform="translate(64,527)"/>
<path d="M0 0 C1 3 1 3 -0.4375 6.1875 C-1.2109375 7.5796875 -1.2109375 7.5796875 -2 9 C-2.33 9 -2.66 9 -3 9 C-3 6.69 -3 4.38 -3 2 C-2.34 2 -1.68 2 -1 2 C-0.67 1.34 -0.34 0.68 0 0 Z " fill="#F9C7A1" transform="translate(365,490)"/>
<path d="M0 0 C4.875 4.625 4.875 4.625 6 8 C5.01 8 4.02 8 3 8 C0 2.25 0 2.25 0 0 Z " fill="#F6C9A7" transform="translate(331,286)"/>
<path d="M0 0 C0.66 1.32 1.32 2.64 2 4 C0.35 5.65 -1.3 7.3 -3 9 C-3.33 8.34 -3.66 7.68 -4 7 C-3.22265625 5.2734375 -3.22265625 5.2734375 -2.0625 3.375 C-1.381875 2.26125 -0.70125 1.1475 0 0 Z " fill="#F9CBA7" transform="translate(153,90)"/>
<path d="M0 0 C1.39195915 4.17587745 -0.17676781 6.13474776 -2 10 C-2.33 10 -2.66 10 -3 10 C-3.36923077 4.58461538 -3.36923077 4.58461538 -1.5 1.625 C-1.005 1.08875 -0.51 0.5525 0 0 Z " fill="#F8CDB0" transform="translate(369,480)"/>
<path d="M0 0 C0.66 0.33 1.32 0.66 2 1 C0.02 3.31 -1.96 5.62 -4 8 C-4.66 7.67 -5.32 7.34 -6 7 C-4.02 4.69 -2.04 2.38 0 0 Z " fill="#F28849" transform="translate(107,268)"/>
<path d="M0 0 C0 3.13751221 -0.35179805 4.39757586 -2 7 C-2.99 7.33 -3.98 7.66 -5 8 C-3.8141763 4.62496331 -2.72426311 2.35277269 0 0 Z " fill="#F9CFAF" transform="translate(163,75)"/>
<path d="M0 0 C-1.25 1.5 -1.25 1.5 -3 3 C-4.32 3 -5.64 3 -7 3 C-7 2.01 -7 1.02 -7 0 C-2.25 -1.125 -2.25 -1.125 0 0 Z " fill="#F6B98D" transform="translate(256,33)"/>
<path d="M0 0 C0.66 0.33 1.32 0.66 2 1 C-0.75 3.0625 -0.75 3.0625 -4 5 C-6.203125 4.62109375 -6.203125 4.62109375 -8 4 C-6.71349294 3.30289269 -5.42059335 2.61757124 -4.125 1.9375 C-3.40570313 1.55464844 -2.68640625 1.17179687 -1.9453125 0.77734375 C-1.30335938 0.52082031 -0.66140625 0.26429687 0 0 Z " fill="#FBCFAD" transform="translate(222,29)"/>
</svg>
