<?xml version="1.0" encoding="UTF-8"?>
<svg version="1.1" xmlns="http://www.w3.org/2000/svg" width="487" height="736">
<path d="M0 0 C160.71 0 321.42 0 487 0 C487 242.88 487 485.76 487 736 C326.29 736 165.58 736 0 736 C0 493.12 0 250.24 0 0 Z " fill="#FEFEFE" transform="translate(0,0)"/>
<path d="M0 0 C1 1 1 1 1.5 3.125 C0.21193353 10.53138218 -8.76993432 15.24818528 -14.38232422 19.59790039 C-21.12555686 24.83406223 -27.62843506 30.31832448 -34 36 C-34.88429688 36.78632812 -35.76859375 37.57265625 -36.6796875 38.3828125 C-52.21155677 53.02147523 -64.60510309 73.34706376 -65.35957336 95.09773254 C-65.41266478 98.05924156 -65.41601341 101.01814237 -65.39111328 103.97998047 C-65.37511803 106.2333725 -65.39099774 108.48494539 -65.41015625 110.73828125 C-65.42980556 123.77004472 -63.67409267 136.4338016 -59.4375 148.8125 C-59.06286621 149.91416504 -59.06286621 149.91416504 -58.68066406 151.03808594 C-53.461162 165.6465148 -45.43687408 178.7702926 -36 191 C-35.54979492 191.59151855 -35.09958984 192.18303711 -34.63574219 192.79248047 C-29.43816974 199.6127008 -24.08763054 206.22008505 -18.265625 212.5234375 C-16.35894455 214.60763648 -14.49494547 216.71718766 -12.640625 218.84765625 C-9.32361298 222.64711062 -5.94492146 226.37878285 -2.5 230.0625 C-1.88125 230.72443359 -1.2625 231.38636719 -0.625 232.06835938 C6.40336472 239.52248081 13.67658967 246.73316922 20.96679688 253.92993164 C25.62110536 258.53609109 30.13307251 263.19068715 34.390625 268.16796875 C37.10948101 271.26297717 40.05782111 274.11934569 43 277 C47.24013573 281.19632007 51.38150676 285.40079136 55.23828125 289.95703125 C57.09071375 292.10519577 59.00836554 294.18605697 60.93847656 296.2644043 C66.55220589 302.31414217 71.83463714 308.56040028 77 315 C77.91009272 316.0961873 78.82162076 317.19118411 79.734375 318.28515625 C123.14738244 370.76953838 145.70887307 434.66229068 139.65429688 502.89599609 C138.25260667 514.86088888 135.79988153 526.56473151 132 538 C131.41578373 539.84737726 130.83254235 541.69506296 130.25 543.54296875 C112.75550172 598.28536858 78.50666786 639.41512417 27.29296875 665.859375 C-18.50088254 688.63928058 -74.22269288 696.21772997 -124 684 C-125.42392125 683.68367593 -126.848341 683.36958025 -128.2734375 683.05859375 C-158.92358579 675.77183142 -187.73232509 658.95274513 -211 638 C-211.63969727 637.42733398 -212.27939453 636.85466797 -212.93847656 636.26464844 C-250.85220937 602.12957228 -280.83390581 548.66104396 -284.12576294 497.02737427 C-284.35976502 491.83160887 -284.38886109 486.63775326 -284.375 481.4375 C-284.37412384 480.63074829 -284.37324768 479.82399658 -284.37234497 478.99279785 C-284.17551218 423.64259977 -264.22388066 375.03455838 -226.625 334.8125 C-223.97658585 331.97491341 -221.3950522 329.08499759 -218.8125 326.1875 C-215.44469163 322.4813247 -212.01213509 319.08080655 -208.17578125 315.8671875 C-205.99343501 313.99436613 -203.91200004 312.03320664 -201.82714844 310.05322266 C-191.81683826 300.61410039 -177.79029708 287.82804463 -163.375 287.875 C-162.57835937 287.87242187 -161.78171875 287.86984375 -160.9609375 287.8671875 C-159 288 -159 288 -158 289 C-157.53561697 292.3194787 -157.74052634 293.63932573 -159.72265625 296.39453125 C-160.49480469 297.19246094 -161.26695312 297.99039062 -162.0625 298.8125 C-162.88878906 299.68777344 -163.71507812 300.56304687 -164.56640625 301.46484375 C-165.77103516 302.71974609 -165.77103516 302.71974609 -167 304 C-172.7998776 310.31706414 -178.10360692 316.95699981 -183 324 C-183.94359375 325.31871094 -183.94359375 325.31871094 -184.90625 326.6640625 C-188.97963424 333.33134708 -189.55297776 339.48299433 -189.625 347.125 C-189.6360376 348.0432959 -189.6470752 348.9615918 -189.65844727 349.90771484 C-189.39493419 362.5314614 -183.14619027 373.64726584 -174.1328125 382.296875 C-163.14686443 391.06953683 -152.71164544 393.35657438 -139 392 C-131.06010825 389.96794281 -125.5525115 384.63785548 -121 378 C-113.81504636 365.12899461 -111.42820134 352.96119613 -111.5625 338.375 C-111.56756058 337.31036026 -111.56756058 337.31036026 -111.57272339 336.22421265 C-111.64788757 325.31034276 -112.54074214 315.38547221 -116 305 C-116.43450283 303.56446949 -116.8666831 302.12823452 -117.296875 300.69140625 C-121.63486528 286.67456669 -127.13961254 273.03665244 -132.4934082 259.38427734 C-136.6729289 248.69045995 -140.45645781 237.92022931 -144 227 C-144.30583008 226.11094971 -144.61166016 225.22189941 -144.92675781 224.3059082 C-150.42301595 207.64603718 -150.50277596 190.46993646 -150.44604492 173.10595703 C-150.43753031 169.13912067 -150.46640162 165.17372658 -150.49804688 161.20703125 C-150.59845285 124.78796514 -140.25499371 92.51012574 -117 64 C-116.53174805 63.42040527 -116.06349609 62.84081055 -115.58105469 62.24365234 C-112.47188699 58.41706593 -109.26992927 54.69005951 -106 51 C-105.39414063 50.29746094 -104.78828125 49.59492187 -104.1640625 48.87109375 C-81.3483926 24.14551483 -34.13858862 -2.79120536 0 0 Z " fill="#FC8438" transform="translate(316,23)"/>
</svg>
